<svg width="24" height="24" viewBox="0 0 24 24" fill="none" xmlns="http://www.w3.org/2000/svg">
<path d="M14.1706 20.8905C18.3536 20.6125 21.6856 17.2332 21.9598 12.9909C22.0134 12.1607 22.0134 11.3009 21.9598 10.4707C21.6856 6.22838 18.3536 2.84913 14.1706 2.57107C12.7435 2.47621 11.2536 2.47641 9.8294 2.57107C5.64639 2.84913 2.31441 6.22838 2.04024 10.4707C1.98659 11.3009 1.98659 12.1607 2.04024 12.9909C2.1401 14.536 2.82343 15.9666 3.62791 17.1746C4.09501 18.0203 3.78674 19.0758 3.30021 19.9978C2.94941 20.6626 2.77401 20.995 2.91484 21.2351C3.05568 21.4752 3.37026 21.4829 3.99943 21.4982C5.24367 21.5285 6.08268 21.1757 6.74868 20.6846C7.1264 20.4061 7.31527 20.2668 7.44544 20.2508C7.5756 20.2348 7.83177 20.3403 8.34401 20.5513C8.8044 20.7409 9.33896 20.8579 9.8294 20.8905C11.2536 20.9852 12.7435 20.9854 14.1706 20.8905Z" stroke="white" stroke-linejoin="round"/>
<path d="M9.29289 14.7071L9.64645 14.3536L9.64645 14.3536L9.29289 14.7071ZM14.7071 14.7071L14.3536 14.3536L14.3536 14.3536L14.7071 14.7071ZM14.7071 9.29289L14.3536 9.64645L14.3536 9.64645L14.7071 9.29289ZM11 15C11 14.7239 10.7761 14.5 10.5 14.5C10.2239 14.5 10 14.7239 10 15H11ZM10 17C10 17.2761 10.2239 17.5 10.5 17.5C10.7761 17.5 11 17.2761 11 17H10ZM14 15C14 14.7239 13.7761 14.5 13.5 14.5C13.2239 14.5 13 14.7239 13 15H14ZM13 17C13 17.2761 13.2239 17.5 13.5 17.5C13.7761 17.5 14 17.2761 14 17H13ZM11 7C11 6.72386 10.7761 6.5 10.5 6.5C10.2239 6.5 10 6.72386 10 7H11ZM10 9C10 9.27614 10.2239 9.5 10.5 9.5C10.7761 9.5 11 9.27614 11 9H10ZM14 7C14 6.72386 13.7761 6.5 13.5 6.5C13.2239 6.5 13 6.72386 13 7H14ZM13 9C13 9.27614 13.2239 9.5 13.5 9.5C13.7761 9.5 14 9.27614 14 9H13ZM9 11C9.27614 11 9.5 10.7761 9.5 10.5C9.5 10.2239 9.27614 10 9 10V11ZM7 10C6.72386 10 6.5 10.2239 6.5 10.5C6.5 10.7761 6.72386 11 7 11V10ZM9 14C9.27614 14 9.5 13.7761 9.5 13.5C9.5 13.2239 9.27614 13 9 13V14ZM7 13C6.72386 13 6.5 13.2239 6.5 13.5C6.5 13.7761 6.72386 14 7 14V13ZM17 11C17.2761 11 17.5 10.7761 17.5 10.5C17.5 10.2239 17.2761 10 17 10V11ZM15 10C14.7239 10 14.5 10.2239 14.5 10.5C14.5 10.7761 14.7239 11 15 11V10ZM17 14C17.2761 14 17.5 13.7761 17.5 13.5C17.5 13.2239 17.2761 13 17 13V14ZM15 13C14.7239 13 14.5 13.2239 14.5 13.5C14.5 13.7761 14.7239 14 15 14V13ZM11 9V9.5H13V9V8.5H11V9ZM15 11H14.5V13H15H15.5V11H15ZM13 15V14.5H11V15V15.5H13V15ZM9 13H9.5V11H9H8.5V13H9ZM11 15V14.5C10.5145 14.5 10.2006 14.4989 9.96935 14.4678C9.75248 14.4387 9.68451 14.3916 9.64645 14.3536L9.29289 14.7071L8.93934 15.0607C9.19417 15.3155 9.50835 15.4149 9.8361 15.4589C10.1495 15.5011 10.5427 15.5 11 15.5V15ZM9 13H8.5C8.5 13.4573 8.49894 13.8505 8.54107 14.1639C8.58514 14.4917 8.68451 14.8058 8.93934 15.0607L9.29289 14.7071L9.64645 14.3536C9.60838 14.3155 9.56131 14.2475 9.53215 14.0306C9.50106 13.7994 9.5 13.4855 9.5 13H9ZM15 13H14.5C14.5 13.4855 14.4989 13.7994 14.4678 14.0306C14.4387 14.2475 14.3916 14.3155 14.3536 14.3536L14.7071 14.7071L15.0607 15.0607C15.3155 14.8058 15.4149 14.4917 15.4589 14.1639C15.5011 13.8505 15.5 13.4573 15.5 13H15ZM13 15V15.5C13.4573 15.5 13.8505 15.5011 14.1639 15.4589C14.4917 15.4149 14.8058 15.3155 15.0607 15.0607L14.7071 14.7071L14.3536 14.3536C14.3155 14.3916 14.2475 14.4387 14.0306 14.4678C13.7994 14.4989 13.4855 14.5 13 14.5V15ZM13 9V9.5C13.4855 9.5 13.7994 9.50106 14.0306 9.53215C14.2475 9.56131 14.3155 9.60838 14.3536 9.64645L14.7071 9.29289L15.0607 8.93934C14.8058 8.68451 14.4917 8.58514 14.1639 8.54107C13.8505 8.49894 13.4573 8.5 13 8.5V9ZM15 11H15.5C15.5 10.5427 15.5011 10.1495 15.4589 9.8361C15.4149 9.50835 15.3155 9.19417 15.0607 8.93934L14.7071 9.29289L14.3536 9.64645C14.3916 9.68451 14.4387 9.75248 14.4678 9.96935C14.4989 10.2006 14.5 10.5145 14.5 11H15ZM11 9V8.5C10.5427 8.5 10.1495 8.49894 9.8361 8.54107C9.50835 8.58514 9.19417 8.68451 8.93934 8.93934L9.29289 9.29289L9.64645 9.64645C9.68451 9.60838 9.75248 9.56131 9.96935 9.53215C10.2006 9.50106 10.5145 9.5 11 9.5V9ZM9 11H9.5C9.5 10.5145 9.50106 10.2006 9.53215 9.96935C9.56131 9.75248 9.60838 9.68451 9.64645 9.64645L9.29289 9.29289L8.93934 8.93934C8.68451 9.19417 8.58514 9.50835 8.54107 9.8361C8.49894 10.1495 8.5 10.5427 8.5 11H9ZM10.5 15H10V17H10.5H11V15H10.5ZM13.5 15H13V17H13.5H14V15H13.5ZM10.5 7H10V9H10.5H11V7H10.5ZM13.5 7H13V9H13.5H14V7H13.5ZM9 10.5V10H7V10.5V11H9V10.5ZM9 13.5V13H7V13.5V14H9V13.5ZM17 10.5V10H15V10.5V11H17V10.5ZM17 13.5V13H15V13.5V14H17V13.5Z" fill="white"/>
</svg>
