<svg width="29" height="23" viewBox="0 0 29 23" fill="none" xmlns="http://www.w3.org/2000/svg">
<path d="M28 15.6763V11.75C28.0021 11.3195 27.8643 10.8999 27.6073 10.5546C27.3503 10.2092 26.988 9.95665 26.575 9.835L26.5488 9.8275L22 8.58875V4C22 3.73478 21.8946 3.48043 21.7071 3.29289C21.5196 3.10536 21.2652 3 21 3C20.7348 3 20.4804 3.10536 20.2929 3.29289C20.1054 3.48043 20 3.73478 20 4V8.0475L17 7.235V2H18C18.2652 2 18.5196 1.89464 18.7071 1.70711C18.8946 1.51957 19 1.26522 19 1C19 0.734784 18.8946 0.48043 18.7071 0.292893C18.5196 0.105357 18.2652 0 18 0H3C2.73479 0 2.48043 0.105357 2.2929 0.292893C2.10536 0.48043 2 0.734784 2 1C2 1.26522 2.10536 1.51957 2.2929 1.70711C2.48043 1.89464 2.73479 2 3 2H4V6H3C2.73479 6 2.48043 6.10536 2.2929 6.29289C2.10536 6.48043 2 6.73478 2 7C2 7.26522 2.10536 7.51957 2.2929 7.70711C2.48043 7.89464 2.73479 8 3 8H6.5C8.75363 8.00232 10.9143 8.89859 12.5079 10.4922C14.1014 12.0857 14.9977 14.2464 15 16.5V18C15 18.2652 15.1054 18.5196 15.2929 18.7071C15.4804 18.8946 15.7348 19 16 19H20.0288C20.1054 19.6949 20.3429 20.3624 20.7224 20.9496C21.102 21.5367 21.6131 22.0274 22.2153 22.3826C22.8175 22.7378 23.4941 22.9478 24.1916 22.996C24.8891 23.0442 25.5882 22.9292 26.2335 22.6601C26.8788 22.391 27.4525 21.9753 27.9091 21.4459C28.3658 20.9165 28.6928 20.288 28.8642 19.6102C29.0357 18.9324 29.0468 18.224 28.8968 17.5411C28.7468 16.8583 28.4398 16.2198 28 15.6763ZM6.5 6H6V2H15V10.3462C14.028 9.00107 12.7507 7.9057 11.2731 7.15014C9.79543 6.39459 8.15961 6.00041 6.5 6ZM17 9.30625L26 11.75V14.2625C24.8755 13.8645 23.6389 13.9292 22.5621 14.4426C21.4853 14.9559 20.6564 15.8758 20.2575 17H17V9.30625ZM24.5 21C24.0056 21 23.5222 20.8534 23.1111 20.5787C22.7 20.304 22.3795 19.9135 22.1903 19.4567C22.0011 18.9999 21.9516 18.4972 22.048 18.0123C22.1445 17.5273 22.3826 17.0819 22.7322 16.7322C23.0819 16.3826 23.5273 16.1445 24.0123 16.048C24.4972 15.9516 24.9999 16.0011 25.4567 16.1903C25.9135 16.3795 26.304 16.7 26.5787 17.1111C26.8534 17.5222 27 18.0055 27 18.5C27 19.163 26.7366 19.7989 26.2678 20.2678C25.7989 20.7366 25.163 21 24.5 21ZM6.5 10C5.21442 10 3.95772 10.3812 2.8888 11.0954C1.81988 11.8097 0.986756 12.8248 0.494786 14.0126C0.00281635 15.2003 -0.125905 16.5072 0.124899 17.7681C0.375703 19.029 0.994768 20.1872 1.90381 21.0962C2.81285 22.0052 3.97104 22.6243 5.23192 22.8751C6.49279 23.1259 7.79973 22.9972 8.98744 22.5052C10.1752 22.0132 11.1903 21.1801 11.9046 20.1112C12.6188 19.0423 13 17.7856 13 16.5C12.998 14.7767 12.3126 13.1246 11.094 11.906C9.87545 10.6874 8.2233 10.002 6.5 10ZM6.5 21C5.60999 21 4.73996 20.7361 3.99994 20.2416C3.25992 19.7471 2.68314 19.0443 2.34255 18.2221C2.00195 17.3998 1.91284 16.495 2.08647 15.6221C2.2601 14.7492 2.68869 13.9474 3.31802 13.318C3.94736 12.6887 4.74918 12.2601 5.6221 12.0865C6.49501 11.9128 7.39981 12.0019 8.22208 12.3425C9.04435 12.6831 9.74715 13.2599 10.2416 13.9999C10.7361 14.74 11 15.61 11 16.5C11 17.6935 10.5259 18.8381 9.68198 19.682C8.83807 20.5259 7.69348 21 6.5 21ZM8 16.5C8 16.7967 7.91203 17.0867 7.74721 17.3334C7.58239 17.58 7.34812 17.7723 7.07403 17.8858C6.79994 17.9993 6.49834 18.0291 6.20737 17.9712C5.9164 17.9133 5.64912 17.7704 5.43934 17.5607C5.22956 17.3509 5.0867 17.0836 5.02882 16.7926C4.97095 16.5017 5.00065 16.2001 5.11418 15.926C5.22772 15.6519 5.41997 15.4176 5.66665 15.2528C5.91332 15.088 6.20333 15 6.5 15C6.89783 15 7.27936 15.158 7.56066 15.4393C7.84197 15.7206 8 16.1022 8 16.5Z" fill="#7F7F7F"/>
</svg>
