<svg width="32" height="32" viewBox="0 0 32 32" fill="none" xmlns="http://www.w3.org/2000/svg">
<path d="M11.4335 22.6568H27.0632C27.5849 22.6568 28.0404 22.2282 28.0404 21.6522C28.0404 21.0762 27.5849 20.6476 27.0632 20.6476H11.6609C10.8975 20.6476 10.4289 20.1116 10.3084 19.295L10.0941 17.8888H27.0895C29.0449 17.8888 30.0495 16.683 30.3306 14.7682L31.4021 7.68304C31.4308 7.51484 31.4487 7.34497 31.4558 7.17447C31.4558 6.53162 30.9735 6.08933 30.2369 6.08933H8.36664L8.11178 4.38876C7.97807 3.35733 7.60321 2.83447 6.23749 2.83447H1.53578C1.00035 2.83447 0.544922 3.30419 0.544922 3.84019C0.544922 4.38876 1.00035 4.8579 1.53635 4.8579H6.06264L8.20549 19.563C8.48721 21.4648 9.49121 22.6568 11.4335 22.6568ZM29.1786 8.11162L28.2289 14.527C28.1215 15.3573 27.6798 15.8665 26.8895 15.8665L9.80035 15.8796L8.66149 8.11162H29.1786ZM12.4918 29.1659C12.7774 29.1683 13.0606 29.1138 13.3249 29.0055C13.5892 28.8973 13.8293 28.7376 14.0313 28.5357C14.2332 28.3337 14.3929 28.0936 14.5011 27.8293C14.6093 27.565 14.6639 27.2818 14.6615 26.9962C14.6628 26.7109 14.6075 26.4282 14.499 26.1644C14.3904 25.9005 14.2306 25.6608 14.0289 25.4591C13.8271 25.2574 13.5874 25.0976 13.3236 24.989C13.0598 24.8804 12.7771 24.8252 12.4918 24.8265C11.2735 24.8265 10.3089 25.791 10.3089 26.9962C10.3089 28.215 11.2735 29.1659 12.4918 29.1659ZM25.0141 29.1659C26.2329 29.1659 27.1969 28.215 27.1969 26.9962C27.1969 25.7905 26.2329 24.8265 25.0141 24.8265C23.8089 24.8265 22.8312 25.791 22.8312 26.9962C22.8312 28.215 23.8089 29.1659 25.0141 29.1659Z" fill="#7F7F7F"/>
</svg>
