<svg width="32" height="32" viewBox="0 0 32 32" fill="none" xmlns="http://www.w3.org/2000/svg">
<path d="M11.4335 22.6636H27.0632C27.5849 22.6636 28.0404 22.235 28.0404 21.659C28.0404 21.083 27.5849 20.6545 27.0632 20.6545H11.6609C10.8975 20.6545 10.4289 20.1185 10.3084 19.3019L10.0941 17.8956H27.0895C29.0449 17.8956 30.0495 16.6899 30.3306 14.775L31.4021 7.68988C31.4308 7.52168 31.4487 7.3518 31.4558 7.18131C31.4558 6.53845 30.9735 6.09617 30.2369 6.09617H8.36664L8.11178 4.39559C7.97807 3.36417 7.60321 2.84131 6.23749 2.84131H1.53578C1.00035 2.84131 0.544922 3.31102 0.544922 3.84702C0.544922 4.39559 1.00035 4.86474 1.53635 4.86474H6.06264L8.20549 19.5699C8.48721 21.4716 9.49121 22.6636 11.4335 22.6636ZM29.1786 8.11845L28.2289 14.5339C28.1215 15.3642 27.6798 15.8733 26.8895 15.8733L9.80035 15.8864L8.66149 8.11845H29.1786ZM12.4918 29.1727C12.7774 29.1751 13.0606 29.1206 13.3249 29.0124C13.5892 28.9042 13.8293 28.7445 14.0313 28.5425C14.2332 28.3406 14.3929 28.1004 14.5011 27.8361C14.6093 27.5718 14.6639 27.2886 14.6615 27.003C14.6628 26.7177 14.6075 26.435 14.499 26.1712C14.3904 25.9074 14.2306 25.6677 14.0289 25.4659C13.8271 25.2642 13.5874 25.1044 13.3236 24.9958C13.0598 24.8873 12.7771 24.832 12.4918 24.8333C11.2735 24.8333 10.3089 25.7979 10.3089 27.003C10.3089 28.2219 11.2735 29.1727 12.4918 29.1727ZM25.0141 29.1727C26.2329 29.1727 27.1969 28.2219 27.1969 27.003C27.1969 25.7973 26.2329 24.8333 25.0141 24.8333C23.8089 24.8333 22.8312 25.7979 22.8312 27.003C22.8312 28.2219 23.8089 29.1727 25.0141 29.1727Z" fill="white"/>
</svg>
