<svg width="32" height="32" viewBox="0 0 32 32" fill="none" xmlns="http://www.w3.org/2000/svg">
<path d="M9.08995 23.4375C7.94245 23.4 6.79245 23.4575 5.65745 23.6175C4.68245 23.755 3.71995 23.9725 2.78245 24.265C2.55495 24.335 2.29995 24.3925 2.08495 24.5C1.94745 24.57 1.83495 24.65 1.71245 24.4975C1.54245 24.2925 1.65495 23.92 1.68245 23.685C1.73745 23.2125 1.79995 22.7425 1.87245 22.2725C2.18745 20.18 2.60995 18.1075 2.89745 16.01C3.02245 15.0825 3.12495 14.1475 3.24495 13.22C3.30495 12.7425 3.37245 12.265 3.44995 11.79C3.54495 11.2075 3.56495 10.7975 4.10995 10.445C5.03745 9.845 6.14995 9.58 7.21245 9.3225C8.35745 9.045 9.49995 8.81 10.6849 8.855C11.5149 8.8875 12.3224 9.1075 13.0549 9.495C13.4099 9.6825 13.7499 9.9025 14.0724 10.145C14.3924 10.3825 14.7824 10.6375 15.0374 10.9425C15.2649 11.2125 15.3374 11.4575 15.3599 11.7375C15.2024 15.32 15.2274 24.2025 15.2549 24.8325C15.2574 24.885 15.2624 24.9375 15.2649 24.99C15.2524 25.0575 15.2149 25.11 15.1049 25.11C14.9724 25.1125 14.8274 25.025 14.7124 24.965C14.4749 24.84 14.2349 24.72 13.9949 24.6075C12.4424 23.875 10.8074 23.4925 9.08995 23.4375ZM30.2874 24.495C30.1624 24.6475 30.0524 24.5675 29.9149 24.4975C29.7024 24.39 29.4474 24.3325 29.2174 24.2625C28.2799 23.97 27.3174 23.755 26.3424 23.615C25.2074 23.455 24.0549 23.4 22.9074 23.435C21.1924 23.49 19.5574 23.8725 18.0024 24.605C17.7624 24.72 17.5224 24.84 17.2849 24.9625C17.1699 25.0225 17.0249 25.1075 16.8899 25.1075C16.7799 25.1075 16.7424 25.055 16.7299 24.9875C16.7324 24.935 16.7399 24.8825 16.7399 24.83C16.7674 24.2 16.7949 15.3175 16.6349 11.735C16.6574 11.455 16.7299 11.21 16.9549 10.94C17.2149 10.635 17.6024 10.3775 17.9224 10.1425C18.2449 9.9025 18.5824 9.68 18.9399 9.4925C19.6749 9.105 20.4799 8.885 21.3099 8.8525C22.4949 8.805 23.6374 9.0425 24.7824 9.32C25.8449 9.5775 26.9574 9.84 27.8874 10.4425C28.4324 10.795 28.4524 11.205 28.5474 11.7875C28.6249 12.2625 28.6924 12.74 28.7524 13.2175C28.8699 14.1475 28.9724 15.08 29.0999 16.0075C29.3874 18.1025 29.8124 20.1775 30.1249 22.27C30.1924 22.74 30.2599 23.21 30.3149 23.6825C30.3449 23.9175 30.4574 24.29 30.2874 24.495Z" fill="none"/>
<path d="M31.7001 26.705C31.7176 26.355 31.8776 25.3775 31.8726 25.1875C31.8551 22.7525 30.3101 14.7275 30.0626 12.7725L30.0476 12.6525C29.9626 11.885 29.9301 10.9725 29.6476 10.2475C29.3626 9.5175 28.4401 9.2625 27.7751 9.005C25.0226 7.955 21.9151 7.07 18.9951 7.995C17.8551 8.355 16.8276 8.9975 16.0026 10.01C15.1801 8.9975 14.1501 8.355 13.0126 7.995C10.0926 7.07 6.98506 7.955 4.23256 9.005C3.56756 9.26 2.64006 9.515 2.35756 10.2475C2.07506 10.9725 2.04256 11.8825 1.95756 12.6525L1.94256 12.7725C1.69506 14.7275 0.152559 22.7525 0.132559 25.1875C0.127559 25.38 0.290059 26.355 0.307559 26.705C0.332559 27.21 0.272559 27.7175 0.297559 28.22C0.247559 28.395 0.292559 28.56 0.400059 28.69C0.470059 28.825 0.577559 28.9075 0.695059 28.95C0.962559 29.245 1.44756 29.05 1.76506 28.95C4.61006 28.03 7.73756 28.065 10.6726 28.455C11.1926 28.5225 11.7101 28.6075 12.2251 28.7075C12.7601 28.8125 13.2676 29.0025 13.7801 29.185C14.2026 29.335 14.6451 29.46 15.0901 29.545C15.4101 29.6175 15.7226 29.6475 15.8651 29.65C15.9151 29.65 15.9601 29.645 16.0076 29.6425C16.0551 29.6425 16.1026 29.65 16.1501 29.65C16.2926 29.65 16.6051 29.62 16.9251 29.545C17.3701 29.46 17.8126 29.335 18.2351 29.185C18.7476 29.0025 19.2576 28.8125 19.7926 28.7075C20.3076 28.6075 20.8251 28.5225 21.3451 28.455C24.2776 28.065 27.4076 28.03 30.2526 28.95C30.5676 29.0525 31.0526 29.245 31.3201 28.95C31.4401 28.9075 31.5451 28.825 31.6151 28.69C31.7226 28.56 31.7676 28.395 31.7176 28.22C31.7351 27.715 31.6751 27.21 31.7001 26.705ZM9.09006 23.4375C7.94256 23.4 6.79256 23.4575 5.65756 23.6175C4.68256 23.755 3.72006 23.9725 2.78256 24.265C2.55506 24.335 2.30006 24.3925 2.08506 24.5C1.94756 24.57 1.83506 24.65 1.71256 24.4975C1.54256 24.2925 1.65506 23.92 1.68256 23.685C1.73756 23.2125 1.80006 22.7425 1.87256 22.2725C2.18756 20.18 2.61006 18.1075 2.89756 16.01C3.02256 15.0825 3.12506 14.1475 3.24506 13.22C3.30506 12.7425 3.37256 12.265 3.45006 11.79C3.54506 11.2075 3.56506 10.7975 4.11006 10.445C5.03756 9.845 6.15006 9.58 7.21256 9.3225C8.35756 9.045 9.50006 8.81 10.6851 8.855C11.5151 8.8875 12.3226 9.1075 13.0551 9.495C13.4101 9.6825 13.7501 9.9025 14.0726 10.145C14.3926 10.3825 14.7826 10.6375 15.0376 10.9425C15.2651 11.2125 15.3376 11.4575 15.3601 11.7375C15.2026 15.32 15.2276 24.2025 15.2551 24.8325C15.2576 24.885 15.2626 24.9375 15.2651 24.99C15.2526 25.0575 15.2151 25.11 15.1051 25.11C14.9726 25.1125 14.8276 25.025 14.7126 24.965C14.4751 24.84 14.2351 24.72 13.9951 24.6075C12.4426 23.875 10.8076 23.4925 9.09006 23.4375ZM30.2876 24.495C30.1626 24.6475 30.0526 24.5675 29.9151 24.4975C29.7026 24.39 29.4476 24.3325 29.2176 24.2625C28.2801 23.97 27.3176 23.755 26.3426 23.615C25.2076 23.455 24.0551 23.4 22.9076 23.435C21.1926 23.49 19.5576 23.8725 18.0026 24.605C17.7626 24.72 17.5226 24.84 17.2851 24.9625C17.1701 25.0225 17.0251 25.1075 16.8901 25.1075C16.7801 25.1075 16.7426 25.055 16.7301 24.9875C16.7326 24.935 16.7401 24.8825 16.7401 24.83C16.7676 24.2 16.7951 15.3175 16.6351 11.735C16.6576 11.455 16.7301 11.21 16.9551 10.94C17.2151 10.635 17.6026 10.3775 17.9226 10.1425C18.2451 9.9025 18.5826 9.68 18.9401 9.4925C19.6751 9.105 20.4801 8.885 21.3101 8.8525C22.4951 8.805 23.6376 9.0425 24.7826 9.32C25.8451 9.5775 26.9576 9.84 27.8876 10.4425C28.4326 10.795 28.4526 11.205 28.5476 11.7875C28.6251 12.2625 28.6926 12.74 28.7526 13.2175C28.8701 14.1475 28.9726 15.08 29.1001 16.0075C29.3876 18.1025 29.8126 20.1775 30.1251 22.27C30.1926 22.74 30.2601 23.21 30.3151 23.6825C30.3451 23.9175 30.4576 24.29 30.2876 24.495Z" fill="#FFFFFF"/>
<path d="M13.2676 11.6525C10.9001 10.5425 7.71008 10.4825 5.32758 11.6225C4.69758 11.925 5.24758 12.8375 5.87258 12.555C7.90008 11.63 10.6801 11.77 12.6476 12.7125C13.3576 13.05 13.9801 11.9875 13.2676 11.6525ZM13.1926 14.5775C10.6726 13.4725 7.43258 13.055 4.89008 14.365C4.33758 14.65 4.82258 15.43 5.37008 15.185C7.70258 14.1425 10.4976 14.755 12.7651 15.595C13.3526 15.815 13.7701 14.83 13.1926 14.5775ZM13.0601 17.495C12.7926 17.27 12.4201 17.165 12.0976 17.0475C9.75758 16.1925 6.65008 16.1575 4.40258 17.3075C3.90758 17.56 4.32508 18.28 4.81258 18.14C6.03758 17.7925 7.19008 17.6 8.46258 17.5875C9.46008 17.5775 10.3651 17.6825 11.3176 17.9675C11.6051 18.0525 11.8801 18.085 12.1551 18.215C12.3526 18.3075 12.5976 18.425 12.8151 18.4525C13.2901 18.51 13.3876 17.8125 13.1201 17.5475L13.0601 17.495ZM12.8126 20.3125C10.1076 19.0375 7.07258 19.2725 4.33508 20.2375C3.77008 20.4375 4.04008 21.3075 4.61508 21.1275C5.90258 20.7225 6.97508 20.42 8.34258 20.4025C9.65758 20.3875 11.0851 20.8175 12.2901 21.29C12.9376 21.5475 13.4701 20.6225 12.8126 20.3125ZM19.3526 12.71C21.3201 11.7675 24.1001 11.63 26.1276 12.5525C26.7501 12.8375 27.3026 11.9225 26.6726 11.62C24.2926 10.48 21.1026 10.54 18.7351 11.65C18.0201 11.9875 18.6401 13.05 19.3526 12.71ZM19.2376 15.595C21.5051 14.755 24.3001 14.1425 26.6326 15.185C27.1801 15.43 27.6651 14.65 27.1126 14.365C24.5676 13.055 21.3276 13.4725 18.8101 14.5775C18.2326 14.83 18.6476 15.815 19.2376 15.595ZM19.1851 18.455C19.4051 18.4275 19.6451 18.31 19.8426 18.2175C20.1201 18.0875 20.3951 18.055 20.6826 17.97C21.6351 17.6875 22.5401 17.5825 23.5376 17.59C24.8101 17.6 25.9651 17.7925 27.1901 18.1425C27.6751 18.2825 28.0926 17.56 27.6001 17.31C25.3526 16.16 22.2426 16.195 19.9051 17.05C19.5826 17.1675 19.2101 17.27 18.9401 17.4975L18.8801 17.5525C18.6101 17.8125 18.7126 18.5125 19.1851 18.455ZM27.6676 20.2375C24.9301 19.2725 21.8951 19.0375 19.1901 20.3125C18.5326 20.6225 19.0651 21.5475 19.7151 21.29C20.9176 20.8175 22.3426 20.3875 23.6601 20.4025C25.0251 20.42 26.1001 20.7225 27.3851 21.1275C27.9626 21.31 28.2326 20.4375 27.6676 20.2375Z" fill="#FFFFFF"/>
</svg>
