<svg width="32" height="32" viewBox="0 0 32 32" fill="none" xmlns="http://www.w3.org/2000/svg">
<path d="M1.4856 26.7291V18.4548L8.72445 15.3531L15.9633 18.4571V26.7291L8.72445 29.8286L1.4856 26.7291Z" stroke="#7F7F7F" stroke-linecap="round" stroke-linejoin="round"/>
<path d="M1.4856 18.4388L8.72445 21.5406L15.9633 18.4388M8.72445 7.13599L15.961 10.24L23.1999 7.13827" stroke="#7F7F7F" stroke-linecap="round" stroke-linejoin="round"/>
<path d="M15.9609 18.4389L23.1998 21.5406L30.4387 18.4389" stroke="#7F7F7F" stroke-linecap="round" stroke-linejoin="round"/>
<path d="M8.72437 21.5451V29.8309M23.2044 21.5451V29.8309M15.9609 10.24V18.5234M8.72894 15.3486V7.07428L15.9655 3.97256L23.2044 7.07428V15.3486L15.9655 18.4503L8.72894 15.3486ZM15.9609 26.7291V18.4549L23.1998 15.3531L30.4386 18.4571V26.7291L23.1998 29.8286L15.9609 26.7291Z" stroke="#7F7F7F" stroke-linecap="round" stroke-linejoin="round"/>
</svg>
