<svg width="32" height="32" viewBox="0 0 32 32" fill="none" xmlns="http://www.w3.org/2000/svg">
<path d="M29.53 6.15C29.378 6.06223 29.2055 6.01603 29.03 6.01603C28.8545 6.01603 28.682 6.06223 28.53 6.15L20 10.38V7C19.9995 6.82954 19.9554 6.66203 19.8719 6.5134C19.7885 6.36477 19.6684 6.23994 19.5231 6.15076C19.3778 6.06159 19.2122 6.01104 19.0419 6.0039C18.8715 5.99677 18.7022 6.03329 18.55 6.11L10 10.38V3C10 2.73478 9.89464 2.48043 9.70711 2.29289C9.51957 2.10536 9.26522 2 9 2H3C2.73478 2 2.48043 2.10536 2.29289 2.29289C2.10536 2.48043 2 2.73478 2 3V28H30V7C30.0003 6.83006 29.9574 6.66283 29.8751 6.51411C29.7929 6.36538 29.6741 6.24007 29.53 6.15ZM22 26H18V19H22V26ZM28 26H24V18C24 17.7348 23.8946 17.4804 23.7071 17.2929C23.5196 17.1054 23.2652 17 23 17H17C16.7348 17 16.4804 17.1054 16.2929 17.2929C16.1054 17.4804 16 17.7348 16 18V26H4V4H8V13.62L18 8.62V13.62L28 8.62V26Z" fill="#9252FE"/>
</svg>
