<svg width="32" height="32" viewBox="0 0 32 32" fill="none" xmlns="http://www.w3.org/2000/svg">
<g clip-path="url(#clip0_64_1021)">
<path d="M2.83387 14.9556L29.1196 3.00133M29.1196 3.00133L24.2053 1.1499M29.1196 3.00133L27.291 7.91562M30.2853 30.8642H24.571V14.8642C24.571 14.5611 24.6914 14.2704 24.9057 14.0561C25.1201 13.8417 25.4108 13.7213 25.7139 13.7213H29.1424C29.4455 13.7213 29.7362 13.8417 29.9506 14.0561C30.1649 14.2704 30.2853 14.5611 30.2853 14.8642V30.8642ZM18.8567 30.8642H13.1424V18.2928C13.1424 17.9897 13.2628 17.699 13.4772 17.4846C13.6915 17.2703 13.9822 17.1499 14.2853 17.1499H17.7139C18.017 17.1499 18.3077 17.2703 18.522 17.4846C18.7363 17.699 18.8567 17.9897 18.8567 18.2928V30.8642ZM7.42815 30.8642H1.71387V21.7213C1.71387 21.4182 1.83427 21.1275 2.0486 20.9132C2.26293 20.6989 2.55362 20.5785 2.85672 20.5785H6.2853C6.5884 20.5785 6.87909 20.6989 7.09342 20.9132C7.30774 21.1275 7.42815 21.4182 7.42815 21.7213V30.8642Z" stroke="white" stroke-width="2" stroke-linecap="round" stroke-linejoin="round"/>
</g>
<defs>
<clipPath id="clip0_64_1021">
<rect width="32" height="32" fill="white" transform="translate(0 0.00683594)"/>
</clipPath>
</defs>
</svg>
