<svg width="32" height="32" viewBox="0 0 32 32" fill="none" xmlns="http://www.w3.org/2000/svg">
<path fill-rule="evenodd" clip-rule="evenodd" d="M15.9999 3.99984C15.2927 3.99984 14.6144 4.28079 14.1143 4.78089C13.6142 5.28098 13.3332 5.95926 13.3332 6.6665C13.3332 7.37375 13.6142 8.05202 14.1143 8.55212C14.6144 9.05222 15.2927 9.33317 15.9999 9.33317C16.7072 9.33317 17.3854 9.05222 17.8855 8.55212C18.3856 8.05202 18.6666 7.37375 18.6666 6.6665C18.6666 5.95926 18.3856 5.28098 17.8855 4.78089C17.3854 4.28079 16.7072 3.99984 15.9999 3.99984ZM11.9999 6.6665C11.9999 5.60564 12.4213 4.58822 13.1715 3.83808C13.9216 3.08793 14.939 2.6665 15.9999 2.6665C17.0608 2.6665 18.0782 3.08793 18.8283 3.83808C19.5785 4.58822 19.9999 5.60564 19.9999 6.6665C19.9999 7.72737 19.5785 8.74478 18.8283 9.49493C18.0782 10.2451 17.0608 10.6665 15.9999 10.6665C14.939 10.6665 13.9216 10.2451 13.1715 9.49493C12.4213 8.74478 11.9999 7.72737 11.9999 6.6665ZM10.2052 12.9745C10.4077 12.4885 10.7494 12.0733 11.1874 11.7812C11.6254 11.4891 12.1401 11.3332 12.6666 11.3332H19.3332C19.8597 11.3332 20.3744 11.4891 20.8124 11.7812C21.2504 12.0733 21.5922 12.4885 21.7946 12.9745L23.4612 16.9745C24.1499 18.6258 23.0492 20.4365 21.3332 20.6465V21.2612C21.3332 21.3742 21.362 21.4855 21.4168 21.5843C21.4716 21.6832 21.5507 21.7666 21.6466 21.8265L25.3452 24.1378C25.8629 24.4614 26.2612 24.9446 26.4799 25.5145C26.6986 26.0845 26.7259 26.7101 26.5576 27.2969C26.3893 27.8837 26.0346 28.3997 25.5471 28.7671C25.0596 29.1345 24.4657 29.3332 23.8552 29.3332H8.14192C7.53133 29.3332 6.93737 29.1343 6.44997 28.7665C5.96257 28.3988 5.60828 27.8822 5.44077 27.295C5.27326 26.7079 5.30165 26.0821 5.52163 25.5126C5.74162 24.943 6.14122 24.4606 6.65991 24.1385L10.3852 21.8252C10.4816 21.7653 10.561 21.6818 10.6161 21.5827C10.6711 21.4835 10.7 21.3719 10.6999 21.2585V20.6498C8.96458 20.4598 7.84591 18.6365 8.53858 16.9738L10.2052 12.9745ZM12.0332 20.6665V21.2585C12.0332 21.5986 11.9464 21.9331 11.7811 22.2303C11.6158 22.5275 11.3775 22.7777 11.0886 22.9572L7.36391 25.2705C7.09116 25.4396 6.88097 25.6929 6.76519 25.9922C6.64941 26.2915 6.63437 26.6203 6.72233 26.9289C6.8103 27.2375 6.99648 27.509 7.25265 27.7023C7.50883 27.8955 7.82102 28 8.14192 27.9998H19.9999C20.1767 27.9998 20.3463 27.9296 20.4713 27.8046C20.5963 27.6796 20.6666 27.51 20.6666 27.3332V27.2465C20.6665 27.0775 20.6022 26.9149 20.4867 26.7915C20.3712 26.6681 20.2132 26.5932 20.0446 26.5818L11.3219 25.9985C11.1455 25.9867 10.9809 25.9052 10.8645 25.772C10.7481 25.6389 10.6894 25.465 10.7012 25.2885C10.7131 25.112 10.7946 24.9475 10.9277 24.8311C11.0609 24.7147 11.2348 24.656 11.4112 24.6678L20.1332 25.2512C20.6395 25.285 21.1141 25.51 21.4607 25.8806C21.8073 26.2512 22 26.7397 21.9999 27.2472V27.3332C21.9999 27.5665 21.9599 27.7912 21.8866 27.9998H23.8552C24.1762 27.9998 24.4884 27.8954 24.7447 27.7022C25.001 27.5091 25.1875 27.2378 25.276 26.9293C25.3644 26.6208 25.3501 26.2919 25.2351 25.9923C25.1201 25.6927 24.9107 25.4386 24.6386 25.2685L20.9399 22.9565C20.6523 22.7767 20.4151 22.5267 20.2506 22.23C20.0862 21.9334 19.9999 21.5997 19.9999 21.2605V20.6665H18.1619C17.8116 20.6665 17.4648 20.5975 17.1412 20.4635C16.8176 20.3294 16.5236 20.1329 16.2759 19.8852L15.9999 19.6092L15.7239 19.8852C15.4763 20.1329 15.1822 20.3294 14.8586 20.4635C14.535 20.5975 14.1882 20.6665 13.8379 20.6665H12.0332ZM16.6666 18.3905L17.2186 18.9425C17.3424 19.0664 17.4895 19.1647 17.6514 19.2317C17.8132 19.2987 17.9867 19.3332 18.1619 19.3332H20.9999C21.2195 19.3332 21.4356 19.279 21.6292 19.1754C21.8228 19.0718 21.9878 18.922 22.1095 18.7393C22.2313 18.5565 22.3061 18.3466 22.3272 18.1281C22.3483 17.9095 22.3151 17.6891 22.2306 17.4865L20.5639 13.4865C20.4626 13.2436 20.2917 13.0362 20.0727 12.8903C19.8537 12.7443 19.5964 12.6665 19.3332 12.6665H12.6666C12.4034 12.6665 12.1461 12.7443 11.9271 12.8903C11.7082 13.0362 11.5372 13.2436 11.4359 13.4865L9.76925 17.4865C9.68472 17.6891 9.65154 17.9095 9.67265 18.1281C9.69376 18.3466 9.76852 18.5565 9.89028 18.7393C10.012 18.922 10.177 19.0718 10.3706 19.1754C10.5642 19.279 10.7804 19.3332 10.9999 19.3332H13.8379C14.0131 19.3332 14.1866 19.2987 14.3485 19.2317C14.5103 19.1647 14.6574 19.0664 14.7812 18.9425L15.3332 18.3905V16.8438C15.1826 16.9305 15.0466 17.0492 14.9332 17.1998L14.5332 17.7332C14.4711 17.816 14.3906 17.8832 14.2981 17.9295C14.2055 17.9757 14.1034 17.9998 13.9999 17.9998H11.9999C11.8863 17.9998 11.7746 17.9707 11.6754 17.9153C11.5762 17.86 11.4928 17.7802 11.4331 17.6836C11.3734 17.5869 11.3394 17.4766 11.3343 17.3632C11.3292 17.2497 11.3531 17.1368 11.4039 17.0352L12.0706 15.7018C12.108 15.6208 12.1614 15.5481 12.2274 15.488C12.2935 15.428 12.371 15.3818 12.4552 15.3523C12.5395 15.3227 12.6288 15.3104 12.7179 15.3161C12.807 15.3217 12.8941 15.3452 12.9739 15.3851C13.0538 15.4251 13.1248 15.4806 13.1828 15.5485C13.2408 15.6164 13.2845 15.6953 13.3114 15.7804C13.3384 15.8655 13.3479 15.9552 13.3395 16.0441C13.3311 16.133 13.305 16.2193 13.2626 16.2978L13.0786 16.6665H13.6666L13.8666 16.3998C14.9332 14.9778 17.0666 14.9778 18.1332 16.3998L18.3332 16.6665H18.9212L18.7372 16.2978C18.6949 16.2193 18.6687 16.133 18.6603 16.0441C18.6519 15.9552 18.6615 15.8655 18.6884 15.7804C18.7153 15.6953 18.7591 15.6164 18.817 15.5485C18.875 15.4806 18.946 15.4251 19.0259 15.3851C19.1057 15.3452 19.1928 15.3217 19.2819 15.3161C19.371 15.3104 19.4603 15.3227 19.5446 15.3523C19.6289 15.3818 19.7063 15.428 19.7724 15.488C19.8385 15.5481 19.8918 15.6208 19.9292 15.7018L20.5959 17.0352C20.6467 17.1368 20.6707 17.2497 20.6655 17.3632C20.6604 17.4766 20.6264 17.5869 20.5667 17.6836C20.507 17.7802 20.4236 17.86 20.3244 17.9153C20.2252 17.9707 20.1135 17.9998 19.9999 17.9998H17.9999C17.8964 17.9998 17.7943 17.9757 17.7018 17.9295C17.6092 17.8832 17.5287 17.816 17.4666 17.7332L17.0666 17.1998C16.9587 17.0553 16.8226 16.9342 16.6666 16.8438V18.3905Z" fill="#9252FE"/>
</svg>
