<svg width="51" height="51" viewBox="0 0 51 51" fill="none" xmlns="http://www.w3.org/2000/svg">
<path d="M34.2188 0V12.4762L27.375 16.5391V9.62459L23.9531 11.7621L15.9688 16.5391V9.62459L12.5469 11.7621L1.14062 18.6059L0 19.2469V50.1875H50.1875V0H34.2188ZM38.7812 4.5625H45.625V45.625H4.5625V21.7426L11.4062 17.6797V24.5942L14.8281 22.4566L22.8125 17.6797V24.5942L26.2344 22.4566L37.6406 15.6129L38.7812 14.9718V4.5625ZM9.125 27.375V31.9375H13.6875V27.375H9.125ZM18.25 27.375V31.9375H22.8125V27.375H18.25ZM27.375 27.375V31.9375H31.9375V27.375H27.375ZM36.5 27.375V31.9375H41.0625V27.375H36.5ZM9.125 36.5V41.0625H13.6875V36.5H9.125ZM18.25 36.5V41.0625H22.8125V36.5H18.25ZM27.375 36.5V41.0625H31.9375V36.5H27.375ZM36.5 36.5V41.0625H41.0625V36.5H36.5Z" fill="#9252FE"/>
</svg>
