<svg width="1062" height="894" viewBox="0 0 1062 894" fill="none" xmlns="http://www.w3.org/2000/svg">
<g id="Group 427318936">
<path id="Vector 7726" d="M353.5 377.5L854 188L557 553.5" stroke="white" stroke-opacity="0.1"/>
<g id="Vector 7724">
<path d="M9.5 446L1.5 186.5L248 278.5L93 49.5L319.5 42.5L520.5 127V558.5L411.5 278.5L520.5 127L319.5 42.5L93 49.5L248 278.5L9.5 446Z" fill="url(#paint0_linear_78_185)"/>
<path d="M843.5 746.5L591.5 694L788.5 458L843.5 746.5L928.5 458L984.5 157.5L1061 310.5L928.5 458L843.5 746.5L603.5 892.5L465 679L173 834.5L23.5 558.5L465 679L603.5 892.5L843.5 746.5Z" fill="url(#paint1_linear_78_185)"/>
<path d="M728.5 1L686.5 170.5L578 558.5L843.5 346.5L827.5 93L728.5 1Z" fill="url(#paint2_linear_78_185)"/>
<path d="M248 278.5L1.5 186.5L9.5 446L248 278.5ZM248 278.5L93 49.5L319.5 42.5L520.5 127M843.5 746.5L591.5 694L788.5 458L843.5 746.5ZM843.5 746.5L603.5 892.5L465 679M843.5 746.5L928.5 458M520.5 127L411.5 278.5L520.5 558.5V127ZM465 679L173 834.5L23.5 558.5L465 679ZM928.5 458L1061 310.5L984.5 157.5L928.5 458ZM686.5 170.5L728.5 1L827.5 93L843.5 346.5L578 558.5L686.5 170.5Z" stroke="white" stroke-opacity="0.2"/>
</g>
<path id="Vector 7728" d="M275 352L138.5 458.5L924.5 643.5L937.5 439L684 181.5" stroke="white" stroke-opacity="0.1"/>
<path id="Vector 7727" d="M149.5 511.5L782 445.5" stroke="white" stroke-opacity="0.1"/>
</g>
<defs>
<linearGradient id="paint0_linear_78_185" x1="531.25" y1="1" x2="531.25" y2="892.5" gradientUnits="userSpaceOnUse">
<stop stop-color="#080808" stop-opacity="0.05"/>
<stop offset="0.927885" stop-color="#D9D9D9" stop-opacity="0.15"/>
</linearGradient>
<linearGradient id="paint1_linear_78_185" x1="531.25" y1="1" x2="531.25" y2="892.5" gradientUnits="userSpaceOnUse">
<stop stop-color="#080808" stop-opacity="0.05"/>
<stop offset="0.927885" stop-color="#D9D9D9" stop-opacity="0.15"/>
</linearGradient>
<linearGradient id="paint2_linear_78_185" x1="531.25" y1="1" x2="531.25" y2="892.5" gradientUnits="userSpaceOnUse">
<stop stop-color="#080808" stop-opacity="0.05"/>
<stop offset="0.927885" stop-color="#D9D9D9" stop-opacity="0.15"/>
</linearGradient>
</defs>
</svg>
