<svg width="39" height="39" viewBox="0 0 39 39" fill="none" xmlns="http://www.w3.org/2000/svg">
<rect x="0.5" y="0.5" width="38" height="38" rx="19" stroke="white"/>
<path d="M19.001 9C24.524 9 29.001 13.477 29.001 19C29.001 24.523 24.524 29 19.001 29C17.2337 29.003 15.4976 28.5353 13.971 27.645L9.00499 29L10.357 24.032C9.46595 22.5049 8.99789 20.768 9.00099 19C9.00099 13.477 13.478 9 19.001 9ZM15.593 14.3L15.393 14.308C15.2637 14.3169 15.1373 14.3509 15.021 14.408C14.9126 14.4695 14.8136 14.5463 14.727 14.636C14.607 14.749 14.539 14.847 14.466 14.942C14.0961 15.4229 13.897 16.0133 13.9 16.62C13.902 17.11 14.03 17.587 14.23 18.033C14.639 18.935 15.312 19.89 16.2 20.775C16.414 20.988 16.624 21.202 16.85 21.401C17.9534 22.3724 19.2683 23.073 20.69 23.447L21.258 23.534C21.443 23.544 21.628 23.53 21.814 23.521C22.1052 23.5056 22.3895 23.4268 22.647 23.29C22.7778 23.2223 22.9056 23.1489 23.03 23.07C23.03 23.07 23.0723 23.0413 23.155 22.98C23.29 22.88 23.373 22.809 23.485 22.692C23.569 22.6053 23.639 22.5047 23.695 22.39C23.773 22.227 23.851 21.916 23.883 21.657C23.907 21.459 23.9 21.351 23.897 21.284C23.893 21.177 23.804 21.066 23.707 21.019L23.125 20.758C23.125 20.758 22.255 20.379 21.723 20.137C21.6673 20.1128 21.6077 20.0989 21.547 20.096C21.4786 20.0888 21.4094 20.0965 21.3442 20.1184C21.279 20.1403 21.2192 20.176 21.169 20.223C21.164 20.221 21.097 20.278 20.374 21.154C20.3325 21.2098 20.2753 21.2519 20.2098 21.2751C20.1443 21.2982 20.0733 21.3013 20.006 21.284C19.9408 21.2666 19.877 21.2446 19.815 21.218C19.691 21.166 19.648 21.146 19.563 21.11C18.9889 20.8599 18.4574 20.5215 17.988 20.107C17.862 19.997 17.745 19.877 17.625 19.761C17.2316 19.3842 16.8887 18.958 16.605 18.493L16.546 18.398C16.5043 18.3338 16.47 18.265 16.444 18.193C16.406 18.046 16.505 17.928 16.505 17.928C16.505 17.928 16.748 17.662 16.861 17.518C16.971 17.378 17.064 17.242 17.124 17.145C17.242 16.955 17.279 16.76 17.217 16.609C16.937 15.925 16.6477 15.2447 16.349 14.568C16.29 14.434 16.115 14.338 15.956 14.319C15.902 14.3123 15.848 14.307 15.794 14.303C15.6597 14.2953 15.5251 14.2966 15.391 14.307L15.593 14.3Z" fill="white"/>
</svg>
