<svg width="39" height="39" viewBox="0 0 39 39" fill="none" xmlns="http://www.w3.org/2000/svg">
<rect x="0.5" y="0.5" width="38" height="38" rx="19" stroke="white"/>
<path d="M26 10C26.5304 10 27.0391 10.2107 27.4142 10.5858C27.7893 10.9609 28 11.4696 28 12V26C28 26.5304 27.7893 27.0391 27.4142 27.4142C27.0391 27.7893 26.5304 28 26 28H12C11.4696 28 10.9609 27.7893 10.5858 27.4142C10.2107 27.0391 10 26.5304 10 26V12C10 11.4696 10.2107 10.9609 10.5858 10.5858C10.9609 10.2107 11.4696 10 12 10H26ZM25.5 25.5V20.2C25.5 19.3354 25.1565 18.5062 24.5452 17.8948C23.9338 17.2835 23.1046 16.94 22.24 16.94C21.39 16.94 20.4 17.46 19.92 18.24V17.13H17.13V25.5H19.92V20.57C19.92 19.8 20.54 19.17 21.31 19.17C21.6813 19.17 22.0374 19.3175 22.2999 19.5801C22.5625 19.8426 22.71 20.1987 22.71 20.57V25.5H25.5ZM13.88 15.56C14.3256 15.56 14.7529 15.383 15.0679 15.0679C15.383 14.7529 15.56 14.3256 15.56 13.88C15.56 12.95 14.81 12.19 13.88 12.19C13.4318 12.19 13.0019 12.3681 12.685 12.685C12.3681 13.0019 12.19 13.4318 12.19 13.88C12.19 14.81 12.95 15.56 13.88 15.56ZM15.27 25.5V17.13H12.5V25.5H15.27Z" fill="white"/>
</svg>
