<svg width="31" height="27" viewBox="0 0 31 27" fill="none" xmlns="http://www.w3.org/2000/svg">
<path d="M10.8886 19.8223H26.5183C27.04 19.8223 27.4954 19.3937 27.4954 18.8177C27.4954 18.2417 27.04 17.8131 26.5183 17.8131H11.116C10.3526 17.8131 9.884 17.2771 9.76343 16.4606L9.54914 15.0543H26.5446C28.5 15.0543 29.5046 13.8486 29.7857 11.9337L30.8571 4.84857C30.8859 4.68037 30.9038 4.5105 30.9109 4.34C30.9109 3.69714 30.4286 3.25486 29.692 3.25486H7.82171L7.56686 1.55429C7.43314 0.522857 7.05829 0 5.69257 0H0.990857C0.455429 0 0 0.469714 0 1.00571C0 1.55429 0.455429 2.02343 0.991429 2.02343H5.51771L7.66057 16.7286C7.94229 18.6303 8.94629 19.8223 10.8886 19.8223ZM28.6337 5.27714L27.684 11.6926C27.5766 12.5229 27.1349 13.032 26.3446 13.032L9.25543 13.0451L8.11657 5.27714H28.6337ZM11.9469 26.3314C12.2324 26.3338 12.5156 26.2793 12.78 26.1711C13.0443 26.0629 13.2844 25.9031 13.4863 25.7012C13.6883 25.4992 13.848 25.2591 13.9562 24.9948C14.0644 24.7305 14.1189 24.4473 14.1166 24.1617C14.1179 23.8764 14.0626 23.5937 13.954 23.3299C13.8454 23.0661 13.6857 22.8264 13.4839 22.6246C13.2822 22.4229 13.0425 22.2631 12.7787 22.1545C12.5149 22.046 12.2321 21.9907 11.9469 21.992C10.7286 21.992 9.764 22.9566 9.764 24.1617C9.764 25.3806 10.7286 26.3314 11.9469 26.3314ZM24.4691 26.3314C25.688 26.3314 26.652 25.3806 26.652 24.1617C26.652 22.956 25.688 21.992 24.4691 21.992C23.264 21.992 22.2863 22.9566 22.2863 24.1617C22.2863 25.3806 23.264 26.3314 24.4691 26.3314Z" fill="#9252FE"/>
</svg>
