<svg width="32" height="23" viewBox="0 0 32 23" fill="none" xmlns="http://www.w3.org/2000/svg">
<path d="M31.5676 19.705C31.5851 19.355 31.7451 18.3775 31.7401 18.1875C31.7226 15.7525 30.1776 7.7275 29.9301 5.7725L29.9151 5.6525C29.8301 4.885 29.7976 3.9725 29.5151 3.2475C29.2301 2.5175 28.3076 2.2625 27.6426 2.005C24.8901 0.955 21.7826 0.0699997 18.8626 0.995C17.7226 1.355 16.6951 1.9975 15.8701 3.01C15.0476 1.9975 14.0176 1.355 12.8801 0.995C9.96011 0.0699997 6.85261 0.955 4.10011 2.005C3.43511 2.26 2.50761 2.515 2.22511 3.2475C1.94261 3.9725 1.91011 4.8825 1.82511 5.6525L1.81011 5.7725C1.56261 7.7275 0.020113 15.7525 0.000113002 18.1875C-0.004887 18.38 0.157613 19.355 0.175113 19.705C0.200113 20.21 0.140113 20.7175 0.165113 21.22C0.115113 21.395 0.160113 21.56 0.267613 21.69C0.337613 21.825 0.445113 21.9075 0.562613 21.95C0.830113 22.245 1.31511 22.05 1.63261 21.95C4.47761 21.03 7.60511 21.065 10.5401 21.455C11.0601 21.5225 11.5776 21.6075 12.0926 21.7075C12.6276 21.8125 13.1351 22.0025 13.6476 22.185C14.0701 22.335 14.5126 22.46 14.9576 22.545C15.2776 22.6175 15.5901 22.6475 15.7326 22.65C15.7826 22.65 15.8276 22.645 15.8751 22.6425C15.9226 22.6425 15.9701 22.65 16.0176 22.65C16.1601 22.65 16.4726 22.62 16.7926 22.545C17.2376 22.46 17.6801 22.335 18.1026 22.185C18.6151 22.0025 19.1251 21.8125 19.6601 21.7075C20.1751 21.6075 20.6926 21.5225 21.2126 21.455C24.1451 21.065 27.2751 21.03 30.1201 21.95C30.4351 22.0525 30.9201 22.245 31.1876 21.95C31.3076 21.9075 31.4126 21.825 31.4826 21.69C31.5901 21.56 31.6351 21.395 31.5851 21.22C31.6026 20.715 31.5426 20.21 31.5676 19.705ZM8.95761 16.4375C7.81011 16.4 6.66011 16.4575 5.52511 16.6175C4.55011 16.755 3.58761 16.9725 2.65011 17.265C2.42261 17.335 2.16761 17.3925 1.95261 17.5C1.81511 17.57 1.70261 17.65 1.58011 17.4975C1.41011 17.2925 1.52261 16.92 1.55011 16.685C1.60511 16.2125 1.66761 15.7425 1.74011 15.2725C2.05511 13.18 2.47761 11.1075 2.76511 9.01C2.89011 8.0825 2.99261 7.1475 3.11261 6.22C3.17261 5.7425 3.24011 5.265 3.31761 4.79C3.41261 4.2075 3.43261 3.7975 3.97761 3.445C4.90511 2.845 6.01761 2.58 7.08011 2.3225C8.22511 2.045 9.36761 1.81 10.5526 1.855C11.3826 1.8875 12.1901 2.1075 12.9226 2.495C13.2776 2.6825 13.6176 2.9025 13.9401 3.145C14.2601 3.3825 14.6501 3.6375 14.9051 3.9425C15.1326 4.2125 15.2051 4.4575 15.2276 4.7375C15.0701 8.32 15.0951 17.2025 15.1226 17.8325C15.1251 17.885 15.1301 17.9375 15.1326 17.99C15.1201 18.0575 15.0826 18.11 14.9726 18.11C14.8401 18.1125 14.6951 18.025 14.5801 17.965C14.3426 17.84 14.1026 17.72 13.8626 17.6075C12.3101 16.875 10.6751 16.4925 8.95761 16.4375ZM30.1551 17.495C30.0301 17.6475 29.9201 17.5675 29.7826 17.4975C29.5701 17.39 29.3151 17.3325 29.0851 17.2625C28.1476 16.97 27.1851 16.755 26.2101 16.615C25.0751 16.455 23.9226 16.4 22.7751 16.435C21.0601 16.49 19.4251 16.8725 17.8701 17.605C17.6301 17.72 17.3901 17.84 17.1526 17.9625C17.0376 18.0225 16.8926 18.1075 16.7576 18.1075C16.6476 18.1075 16.6101 18.055 16.5976 17.9875C16.6001 17.935 16.6076 17.8825 16.6076 17.83C16.6351 17.2 16.6626 8.3175 16.5026 4.735C16.5251 4.455 16.5976 4.21 16.8226 3.94C17.0826 3.635 17.4701 3.3775 17.7901 3.1425C18.1126 2.9025 18.4501 2.68 18.8076 2.4925C19.5426 2.105 20.3476 1.885 21.1776 1.8525C22.3626 1.805 23.5051 2.0425 24.6501 2.32C25.7126 2.5775 26.8251 2.84 27.7551 3.4425C28.3001 3.795 28.3201 4.205 28.4151 4.7875C28.4926 5.2625 28.5601 5.74 28.6201 6.2175C28.7376 7.1475 28.8401 8.08 28.9676 9.0075C29.2551 11.1025 29.6801 13.1775 29.9926 15.27C30.0601 15.74 30.1276 16.21 30.1826 16.6825C30.2126 16.9175 30.3251 17.29 30.1551 17.495Z" fill="#7F7F7F"/>
<path d="M13.1351 4.6526C10.7676 3.5426 7.57763 3.4826 5.19513 4.6226C4.56513 4.9251 5.11513 5.8376 5.74013 5.5551C7.76763 4.6301 10.5476 4.7701 12.5151 5.7126C13.2251 6.0501 13.8476 4.9876 13.1351 4.6526ZM13.0601 7.5776C10.5401 6.4726 7.30013 6.0551 4.75763 7.3651C4.20513 7.6501 4.69013 8.4301 5.23763 8.1851C7.57013 7.1426 10.3651 7.7551 12.6326 8.5951C13.2201 8.8151 13.6376 7.8301 13.0601 7.5776ZM12.9276 10.4951C12.6601 10.2701 12.2876 10.1651 11.9651 10.0476C9.62513 9.1926 6.51763 9.1576 4.27013 10.3076C3.77513 10.5601 4.19263 11.2801 4.68013 11.1401C5.90513 10.7926 7.05763 10.6001 8.33013 10.5876C9.32763 10.5776 10.2326 10.6826 11.1851 10.9676C11.4726 11.0526 11.7476 11.0851 12.0226 11.2151C12.2201 11.3076 12.4651 11.4251 12.6826 11.4526C13.1576 11.5101 13.2551 10.8126 12.9876 10.5476L12.9276 10.4951ZM12.6801 13.3126C9.97513 12.0376 6.94013 12.2726 4.20263 13.2376C3.63763 13.4376 3.90763 14.3076 4.48263 14.1276C5.77013 13.7226 6.84263 13.4201 8.21013 13.4026C9.52513 13.3876 10.9526 13.8176 12.1576 14.2901C12.8051 14.5476 13.3376 13.6226 12.6801 13.3126ZM19.2201 5.7101C21.1876 4.7676 23.9676 4.6301 25.9951 5.5526C26.6176 5.8376 27.1701 4.9226 26.5401 4.6201C24.1601 3.4801 20.9701 3.5401 18.6026 4.6501C17.8876 4.9876 18.5076 6.0501 19.2201 5.7101ZM19.1051 8.5951C21.3726 7.7551 24.1676 7.1426 26.5001 8.1851C27.0476 8.4301 27.5326 7.6501 26.9801 7.3651C24.4351 6.0551 21.1951 6.4726 18.6776 7.5776C18.1001 7.8301 18.5151 8.8151 19.1051 8.5951ZM19.0526 11.4551C19.2726 11.4276 19.5126 11.3101 19.7101 11.2176C19.9876 11.0876 20.2626 11.0551 20.5501 10.9701C21.5026 10.6876 22.4076 10.5826 23.4051 10.5901C24.6776 10.6001 25.8326 10.7926 27.0576 11.1426C27.5426 11.2826 27.9601 10.5601 27.4676 10.3101C25.2201 9.1601 22.1101 9.1951 19.7726 10.0501C19.4501 10.1676 19.0776 10.2701 18.8076 10.4976L18.7476 10.5526C18.4776 10.8126 18.5801 11.5126 19.0526 11.4551ZM27.5351 13.2376C24.7976 12.2726 21.7626 12.0376 19.0576 13.3126C18.4001 13.6226 18.9326 14.5476 19.5826 14.2901C20.7851 13.8176 22.2101 13.3876 23.5276 13.4026C24.8926 13.4201 25.9676 13.7226 27.2526 14.1276C27.8301 14.3101 28.1001 13.4376 27.5351 13.2376Z" fill="#7F7F7F"/>
</svg>
