<svg width="34" height="34" viewBox="0 0 34 34" fill="none" xmlns="http://www.w3.org/2000/svg">
<path d="M26 7C26 10.866 22.866 14 19 14C15.134 14 12 10.866 12 7C12 3.13401 15.134 0 19 0C22.866 0 26 3.13401 26 7ZM13.1766 7C13.1766 10.2162 15.7838 12.8234 19 12.8234C22.2162 12.8234 24.8234 10.2162 24.8234 7C24.8234 3.78384 22.2162 1.17663 19 1.17663C15.7838 1.17663 13.1766 3.78384 13.1766 7Z" fill="#7F7F7F"/>
<path d="M18.9961 11.5V10.5" stroke="#7F7F7F" stroke-width="1.5" stroke-linecap="round"/>
<path d="M17 8.99947C17.5 9.49947 18 9.99947 19 9.99947C20 9.99947 20.3021 9.69738 20.5 9.49947C21 8.99947 21.0003 7.99947 20.0003 7.49947C19.2802 7.13942 18.6289 7.31533 17.9961 6.99989C16.993 6.49989 16.9963 4.99986 18.4963 4.49986C18.4963 4.49986 19.4961 4 20.4961 5.5" stroke="#7F7F7F" stroke-width="1.5" stroke-linecap="round"/>
<path d="M19.7461 3C19.7461 2.58579 19.4103 2.25 18.9961 2.25C18.5819 2.25 18.2461 2.58579 18.2461 3H19.7461ZM18.2461 3V4.5H19.7461V3H18.2461Z" fill="#7F7F7F"/>
<path d="M9 32.0274L2 25.0274C2 25.0274 4 21.5274 5.5 21.0274C7 20.5274 12.5 27.0274 12.5 28.0274C12.5 29.0273 9 32.0274 9 32.0274Z" stroke="#7F7F7F" stroke-width="2"/>
<path d="M6 20.9985C6 20.9985 8.25327 17.6917 10.5 16.9985C12.5609 16.3625 14 16.9969 16 17.4985C18 18 22.5 17 23.5 17.5C24.5 18 24.4759 18.6742 25 18.5C26.5 18.0015 27.4192 16.0816 29 14.5003C30 13.5 31 13.4985 32 13.9985C32.7201 14.3584 32.9617 15.3389 32.5 15.9985C29 20.9985 28 23.9985 24 24.9985C20 25.9984 15 24.6651 14 24.9985C13 25.3318 12.5 27.4985 12.5 27.4985" stroke="#7F7F7F" stroke-width="2"/>
<path d="M24.5 18.5C24.5 18.5 25.3875 19.8219 25 20.5C24.5668 21.2582 23.3732 21.5 22.5 21.5C20.5 21.5 19.5 21.5 17 21" stroke="#7F7F7F" stroke-width="2"/>
<circle cx="14.5" cy="20.5" r="0.5" fill="#7F7F7F"/>
</svg>
