<svg width="31" height="32" viewBox="0 0 31 32" fill="none" xmlns="http://www.w3.org/2000/svg">
<path d="M2.12 14.9485L28.4057 2.99425M28.4057 2.99425L23.4914 1.14282M28.4057 2.99425L26.5771 7.90854M29.5714 30.8571H23.8571V14.8571C23.8571 14.554 23.9775 14.2633 24.1919 14.049C24.4062 13.8347 24.6969 13.7143 25 13.7143H28.4286C28.7317 13.7143 29.0224 13.8347 29.2367 14.049C29.451 14.2633 29.5714 14.554 29.5714 14.8571V30.8571ZM18.1429 30.8571H12.4286V18.2857C12.4286 17.9826 12.549 17.6919 12.7633 17.4776C12.9776 17.2632 13.2683 17.1428 13.5714 17.1428H17C17.3031 17.1428 17.5938 17.2632 17.8081 17.4776C18.0224 17.6919 18.1429 17.9826 18.1429 18.2857V30.8571ZM6.71429 30.8571H1V21.7142C1 21.4111 1.12041 21.1205 1.33474 20.9061C1.54906 20.6918 1.83975 20.5714 2.14286 20.5714H5.57143C5.87453 20.5714 6.16522 20.6918 6.37955 20.9061C6.59388 21.1205 6.71429 21.4111 6.71429 21.7142V30.8571Z" stroke="#7F7F7F" stroke-width="2" stroke-linecap="round" stroke-linejoin="round"/>
</svg>
