<svg width="32" height="32" viewBox="0 0 32 32" fill="none" xmlns="http://www.w3.org/2000/svg">
<path d="M31.6999 26.705C31.7174 26.355 31.8774 25.3775 31.8724 25.1875C31.8549 22.7525 30.3099 14.7275 30.0624 12.7725L30.0474 12.6525C29.9624 11.885 29.9299 10.9725 29.6474 10.2475C29.3624 9.5175 28.4399 9.2625 27.7749 9.005C25.0224 7.955 21.9149 7.07 18.9949 7.995C17.8549 8.355 16.8274 8.9975 16.0024 10.01C15.1799 8.9975 14.1499 8.355 13.0124 7.995C10.0924 7.07 6.98494 7.955 4.23244 9.005C3.56744 9.26 2.63994 9.515 2.35744 10.2475C2.07494 10.9725 2.04244 11.8825 1.95744 12.6525L1.94244 12.7725C1.69494 14.7275 0.152437 22.7525 0.132437 25.1875C0.127437 25.38 0.289937 26.355 0.307437 26.705C0.332437 27.21 0.272437 27.7175 0.297437 28.22C0.247437 28.395 0.292437 28.56 0.399937 28.69C0.469937 28.825 0.577437 28.9075 0.694937 28.95C0.962437 29.245 1.44744 29.05 1.76494 28.95C4.60994 28.03 7.73744 28.065 10.6724 28.455C11.1924 28.5225 11.7099 28.6075 12.2249 28.7075C12.7599 28.8125 13.2674 29.0025 13.7799 29.185C14.2024 29.335 14.6449 29.46 15.0899 29.545C15.4099 29.6175 15.7224 29.6475 15.8649 29.65C15.9149 29.65 15.9599 29.645 16.0074 29.6425C16.0549 29.6425 16.1024 29.65 16.1499 29.65C16.2924 29.65 16.6049 29.62 16.9249 29.545C17.3699 29.46 17.8124 29.335 18.2349 29.185C18.7474 29.0025 19.2574 28.8125 19.7924 28.7075C20.3074 28.6075 20.8249 28.5225 21.3449 28.455C24.2774 28.065 27.4074 28.03 30.2524 28.95C30.5674 29.0525 31.0524 29.245 31.3199 28.95C31.4399 28.9075 31.5449 28.825 31.6149 28.69C31.7224 28.56 31.7674 28.395 31.7174 28.22C31.7349 27.715 31.6749 27.21 31.6999 26.705ZM9.08994 23.4375C7.94244 23.4 6.79244 23.4575 5.65744 23.6175C4.68244 23.755 3.71994 23.9725 2.78244 24.265C2.55494 24.335 2.29994 24.3925 2.08494 24.5C1.94744 24.57 1.83494 24.65 1.71244 24.4975C1.54244 24.2925 1.65494 23.92 1.68244 23.685C1.73744 23.2125 1.79994 22.7425 1.87244 22.2725C2.18744 20.18 2.60994 18.1075 2.89744 16.01C3.02244 15.0825 3.12494 14.1475 3.24494 13.22C3.30494 12.7425 3.37244 12.265 3.44994 11.79C3.54494 11.2075 3.56494 10.7975 4.10994 10.445C5.03744 9.845 6.14994 9.58 7.21244 9.3225C8.35744 9.045 9.49994 8.81 10.6849 8.855C11.5149 8.8875 12.3224 9.1075 13.0549 9.495C13.4099 9.6825 13.7499 9.9025 14.0724 10.145C14.3924 10.3825 14.7824 10.6375 15.0374 10.9425C15.2649 11.2125 15.3374 11.4575 15.3599 11.7375C15.2024 15.32 15.2274 24.2025 15.2549 24.8325C15.2574 24.885 15.2624 24.9375 15.2649 24.99C15.2524 25.0575 15.2149 25.11 15.1049 25.11C14.9724 25.1125 14.8274 25.025 14.7124 24.965C14.4749 24.84 14.2349 24.72 13.9949 24.6075C12.4424 23.875 10.8074 23.4925 9.08994 23.4375ZM30.2874 24.495C30.1624 24.6475 30.0524 24.5675 29.9149 24.4975C29.7024 24.39 29.4474 24.3325 29.2174 24.2625C28.2799 23.97 27.3174 23.755 26.3424 23.615C25.2074 23.455 24.0549 23.4 22.9074 23.435C21.1924 23.49 19.5574 23.8725 18.0024 24.605C17.7624 24.72 17.5224 24.84 17.2849 24.9625C17.1699 25.0225 17.0249 25.1075 16.8899 25.1075C16.7799 25.1075 16.7424 25.055 16.7299 24.9875C16.7324 24.935 16.7399 24.8825 16.7399 24.83C16.7674 24.2 16.7949 15.3175 16.6349 11.735C16.6574 11.455 16.7299 11.21 16.9549 10.94C17.2149 10.635 17.6024 10.3775 17.9224 10.1425C18.2449 9.9025 18.5824 9.68 18.9399 9.4925C19.6749 9.105 20.4799 8.885 21.3099 8.8525C22.4949 8.805 23.6374 9.0425 24.7824 9.32C25.8449 9.5775 26.9574 9.84 27.8874 10.4425C28.4324 10.795 28.4524 11.205 28.5474 11.7875C28.6249 12.2625 28.6924 12.74 28.7524 13.2175C28.8699 14.1475 28.9724 15.08 29.0999 16.0075C29.3874 18.1025 29.8124 20.1775 30.1249 22.27C30.1924 22.74 30.2599 23.21 30.3149 23.6825C30.3449 23.9175 30.4574 24.29 30.2874 24.495Z" fill="#7F7F7F"/>
<path d="M13.2675 11.6526C10.9 10.5426 7.70995 10.4826 5.32745 11.6226C4.69745 11.9251 5.24745 12.8376 5.87245 12.5551C7.89995 11.6301 10.68 11.7701 12.6475 12.7126C13.3575 13.0501 13.98 11.9876 13.2675 11.6526ZM13.1925 14.5776C10.6725 13.4726 7.43245 13.0551 4.88995 14.3651C4.33745 14.6501 4.82245 15.4301 5.36995 15.1851C7.70245 14.1426 10.4975 14.7551 12.765 15.5951C13.3525 15.8151 13.77 14.8301 13.1925 14.5776ZM13.06 17.4951C12.7925 17.2701 12.42 17.1651 12.0975 17.0476C9.75745 16.1926 6.64995 16.1576 4.40245 17.3076C3.90745 17.5601 4.32495 18.2801 4.81245 18.1401C6.03745 17.7926 7.18995 17.6001 8.46245 17.5876C9.45995 17.5776 10.365 17.6826 11.3175 17.9676C11.605 18.0526 11.88 18.0851 12.155 18.2151C12.3525 18.3076 12.5975 18.4251 12.815 18.4526C13.29 18.5101 13.3875 17.8126 13.12 17.5476L13.06 17.4951ZM12.8125 20.3126C10.1075 19.0376 7.07245 19.2726 4.33495 20.2376C3.76995 20.4376 4.03995 21.3076 4.61495 21.1276C5.90245 20.7226 6.97495 20.4201 8.34245 20.4026C9.65745 20.3876 11.085 20.8176 12.29 21.2901C12.9375 21.5476 13.47 20.6226 12.8125 20.3126ZM19.3525 12.7101C21.32 11.7676 24.1 11.6301 26.1275 12.5526C26.75 12.8376 27.3025 11.9226 26.6725 11.6201C24.2925 10.4801 21.1025 10.5401 18.735 11.6501C18.02 11.9876 18.64 13.0501 19.3525 12.7101ZM19.2375 15.5951C21.505 14.7551 24.3 14.1426 26.6325 15.1851C27.18 15.4301 27.665 14.6501 27.1125 14.3651C24.5675 13.0551 21.3275 13.4726 18.81 14.5776C18.2325 14.8301 18.6475 15.8151 19.2375 15.5951ZM19.185 18.4551C19.405 18.4276 19.645 18.3101 19.8425 18.2176C20.12 18.0876 20.395 18.0551 20.6825 17.9701C21.635 17.6876 22.54 17.5826 23.5375 17.5901C24.81 17.6001 25.965 17.7926 27.19 18.1426C27.675 18.2826 28.0925 17.5601 27.6 17.3101C25.3525 16.1601 22.2425 16.1951 19.905 17.0501C19.5825 17.1676 19.21 17.2701 18.94 17.4976L18.88 17.5526C18.61 17.8126 18.7125 18.5126 19.185 18.4551ZM27.6675 20.2376C24.93 19.2726 21.895 19.0376 19.19 20.3126C18.5325 20.6226 19.065 21.5476 19.715 21.2901C20.9175 20.8176 22.3425 20.3876 23.66 20.4026C25.025 20.4201 26.1 20.7226 27.385 21.1276C27.9625 21.3101 28.2325 20.4376 27.6675 20.2376Z" fill="#7F7F7F"/>
</svg>
