<svg width="32" height="32" viewBox="0 0 32 32" fill="none" xmlns="http://www.w3.org/2000/svg">
<path d="M4 24.6665V6.6665C4 5.60564 4.42143 4.58822 5.17157 3.83808C5.92172 3.08793 6.93913 2.6665 8 2.6665H26.6667C27.0203 2.6665 27.3594 2.80698 27.6095 3.05703C27.8595 3.30708 28 3.64622 28 3.99984V27.9998C28 28.3535 27.8595 28.6926 27.6095 28.9426C27.3594 29.1927 27.0203 29.3332 26.6667 29.3332H8.66667C7.42899 29.3332 6.24201 28.8415 5.36684 27.9663C4.49167 27.0912 4 25.9042 4 24.6665ZM25.3333 26.6665V22.6665H8.66667C8.13623 22.6665 7.62753 22.8772 7.25245 23.2523C6.87738 23.6274 6.66667 24.1361 6.66667 24.6665C6.66667 25.1969 6.87738 25.7056 7.25245 26.0807C7.62753 26.4558 8.13623 26.6665 8.66667 26.6665H25.3333ZM6.66667 20.4492C7.29179 20.153 7.97494 19.9995 8.66667 19.9998H25.3333V5.33317H8C7.64638 5.33317 7.30724 5.47365 7.05719 5.7237C6.80714 5.97374 6.66667 6.31288 6.66667 6.6665V20.4492Z" fill="white"/>
</svg>
