<svg width="32" height="23" viewBox="0 0 32 23" fill="none" xmlns="http://www.w3.org/2000/svg">
<path d="M31.6999 19.705C31.7174 19.355 31.8774 18.3775 31.8724 18.1875C31.8549 15.7525 30.3099 7.7275 30.0624 5.7725L30.0474 5.6525C29.9624 4.885 29.9299 3.9725 29.6474 3.2475C29.3624 2.5175 28.4399 2.2625 27.7749 2.005C25.0224 0.955 21.9149 0.0699997 18.9949 0.995C17.8549 1.355 16.8274 1.9975 16.0024 3.01C15.1799 1.9975 14.1499 1.355 13.0124 0.995C10.0924 0.0699997 6.98494 0.955 4.23244 2.005C3.56744 2.26 2.63994 2.515 2.35744 3.2475C2.07494 3.9725 2.04244 4.8825 1.95744 5.6525L1.94244 5.7725C1.69494 7.7275 0.152437 15.7525 0.132437 18.1875C0.127437 18.38 0.289937 19.355 0.307437 19.705C0.332437 20.21 0.272437 20.7175 0.297437 21.22C0.247437 21.395 0.292437 21.56 0.399937 21.69C0.469937 21.825 0.577437 21.9075 0.694937 21.95C0.962437 22.245 1.44744 22.05 1.76494 21.95C4.60994 21.03 7.73744 21.065 10.6724 21.455C11.1924 21.5225 11.7099 21.6075 12.2249 21.7075C12.7599 21.8125 13.2674 22.0025 13.7799 22.185C14.2024 22.335 14.6449 22.46 15.0899 22.545C15.4099 22.6175 15.7224 22.6475 15.8649 22.65C15.9149 22.65 15.9599 22.645 16.0074 22.6425C16.0549 22.6425 16.1024 22.65 16.1499 22.65C16.2924 22.65 16.6049 22.62 16.9249 22.545C17.3699 22.46 17.8124 22.335 18.2349 22.185C18.7474 22.0025 19.2574 21.8125 19.7924 21.7075C20.3074 21.6075 20.8249 21.5225 21.3449 21.455C24.2774 21.065 27.4074 21.03 30.2524 21.95C30.5674 22.0525 31.0524 22.245 31.3199 21.95C31.4399 21.9075 31.5449 21.825 31.6149 21.69C31.7224 21.56 31.7674 21.395 31.7174 21.22C31.7349 20.715 31.6749 20.21 31.6999 19.705ZM9.08994 16.4375C7.94244 16.4 6.79244 16.4575 5.65744 16.6175C4.68244 16.755 3.71994 16.9725 2.78244 17.265C2.55494 17.335 2.29994 17.3925 2.08494 17.5C1.94744 17.57 1.83494 17.65 1.71244 17.4975C1.54244 17.2925 1.65494 16.92 1.68244 16.685C1.73744 16.2125 1.79994 15.7425 1.87244 15.2725C2.18744 13.18 2.60994 11.1075 2.89744 9.01C3.02244 8.0825 3.12494 7.1475 3.24494 6.22C3.30494 5.7425 3.37244 5.265 3.44994 4.79C3.54494 4.2075 3.56494 3.7975 4.10994 3.445C5.03744 2.845 6.14994 2.58 7.21244 2.3225C8.35744 2.045 9.49994 1.81 10.6849 1.855C11.5149 1.8875 12.3224 2.1075 13.0549 2.495C13.4099 2.6825 13.7499 2.9025 14.0724 3.145C14.3924 3.3825 14.7824 3.6375 15.0374 3.9425C15.2649 4.2125 15.3374 4.4575 15.3599 4.7375C15.2024 8.32 15.2274 17.2025 15.2549 17.8325C15.2574 17.885 15.2624 17.9375 15.2649 17.99C15.2524 18.0575 15.2149 18.11 15.1049 18.11C14.9724 18.1125 14.8274 18.025 14.7124 17.965C14.4749 17.84 14.2349 17.72 13.9949 17.6075C12.4424 16.875 10.8074 16.4925 9.08994 16.4375ZM30.2874 17.495C30.1624 17.6475 30.0524 17.5675 29.9149 17.4975C29.7024 17.39 29.4474 17.3325 29.2174 17.2625C28.2799 16.97 27.3174 16.755 26.3424 16.615C25.2074 16.455 24.0549 16.4 22.9074 16.435C21.1924 16.49 19.5574 16.8725 18.0024 17.605C17.7624 17.72 17.5224 17.84 17.2849 17.9625C17.1699 18.0225 17.0249 18.1075 16.8899 18.1075C16.7799 18.1075 16.7424 18.055 16.7299 17.9875C16.7324 17.935 16.7399 17.8825 16.7399 17.83C16.7674 17.2 16.7949 8.3175 16.6349 4.735C16.6574 4.455 16.7299 4.21 16.9549 3.94C17.2149 3.635 17.6024 3.3775 17.9224 3.1425C18.2449 2.9025 18.5824 2.68 18.9399 2.4925C19.6749 2.105 20.4799 1.885 21.3099 1.8525C22.4949 1.805 23.6374 2.0425 24.7824 2.32C25.8449 2.5775 26.9574 2.84 27.8874 3.4425C28.4324 3.795 28.4524 4.205 28.5474 4.7875C28.6249 5.2625 28.6924 5.74 28.7524 6.2175C28.8699 7.1475 28.9724 8.08 29.0999 9.0075C29.3874 11.1025 29.8124 13.1775 30.1249 15.27C30.1924 15.74 30.2599 16.21 30.3149 16.6825C30.3449 16.9175 30.4574 17.29 30.2874 17.495Z" fill="white"/>
<path d="M13.2675 4.6526C10.9 3.5426 7.70995 3.4826 5.32745 4.6226C4.69745 4.9251 5.24745 5.8376 5.87245 5.5551C7.89995 4.6301 10.68 4.7701 12.6475 5.7126C13.3575 6.0501 13.98 4.9876 13.2675 4.6526ZM13.1925 7.5776C10.6725 6.4726 7.43245 6.0551 4.88995 7.3651C4.33745 7.6501 4.82245 8.4301 5.36995 8.1851C7.70245 7.1426 10.4975 7.7551 12.765 8.5951C13.3525 8.8151 13.77 7.8301 13.1925 7.5776ZM13.06 10.4951C12.7925 10.2701 12.42 10.1651 12.0975 10.0476C9.75745 9.1926 6.64995 9.1576 4.40245 10.3076C3.90745 10.5601 4.32495 11.2801 4.81245 11.1401C6.03745 10.7926 7.18995 10.6001 8.46245 10.5876C9.45995 10.5776 10.365 10.6826 11.3175 10.9676C11.605 11.0526 11.88 11.0851 12.155 11.2151C12.3525 11.3076 12.5975 11.4251 12.815 11.4526C13.29 11.5101 13.3875 10.8126 13.12 10.5476L13.06 10.4951ZM12.8125 13.3126C10.1075 12.0376 7.07245 12.2726 4.33495 13.2376C3.76995 13.4376 4.03995 14.3076 4.61495 14.1276C5.90245 13.7226 6.97495 13.4201 8.34245 13.4026C9.65745 13.3876 11.085 13.8176 12.29 14.2901C12.9375 14.5476 13.47 13.6226 12.8125 13.3126ZM19.3525 5.7101C21.32 4.7676 24.1 4.6301 26.1275 5.5526C26.75 5.8376 27.3025 4.9226 26.6725 4.6201C24.2925 3.4801 21.1025 3.5401 18.735 4.6501C18.02 4.9876 18.64 6.0501 19.3525 5.7101ZM19.2375 8.5951C21.505 7.7551 24.3 7.1426 26.6325 8.1851C27.18 8.4301 27.665 7.6501 27.1125 7.3651C24.5675 6.0551 21.3275 6.4726 18.81 7.5776C18.2325 7.8301 18.6475 8.8151 19.2375 8.5951ZM19.185 11.4551C19.405 11.4276 19.645 11.3101 19.8425 11.2176C20.12 11.0876 20.395 11.0551 20.6825 10.9701C21.635 10.6876 22.54 10.5826 23.5375 10.5901C24.81 10.6001 25.965 10.7926 27.19 11.1426C27.675 11.2826 28.0925 10.5601 27.6 10.3101C25.3525 9.1601 22.2425 9.1951 19.905 10.0501C19.5825 10.1676 19.21 10.2701 18.94 10.4976L18.88 10.5526C18.61 10.8126 18.7125 11.5126 19.185 11.4551ZM27.6675 13.2376C24.93 12.2726 21.895 12.0376 19.19 13.3126C18.5325 13.6226 19.065 14.5476 19.715 14.2901C20.9175 13.8176 22.3425 13.3876 23.66 13.4026C25.025 13.4201 26.1 13.7226 27.385 14.1276C27.9625 14.3101 28.2325 13.4376 27.6675 13.2376Z" fill="white"/>
</svg>
