<svg width="32" height="32" viewBox="0 0 32 32" fill="none" xmlns="http://www.w3.org/2000/svg">
<g clip-path="url(#clip0_64_930)">
<path d="M2.83387 14.9488L29.1196 2.99449M29.1196 2.99449L24.2053 1.14307M29.1196 2.99449L27.291 7.90878M30.2853 30.8574H24.571V14.8574C24.571 14.5542 24.6914 14.2636 24.9057 14.0492C25.1201 13.8349 25.4108 13.7145 25.7139 13.7145H29.1424C29.4455 13.7145 29.7362 13.8349 29.9506 14.0492C30.1649 14.2636 30.2853 14.5542 30.2853 14.8574V30.8574ZM18.8567 30.8574H13.1424V18.2859C13.1424 17.9828 13.2628 17.6921 13.4772 17.4778C13.6915 17.2635 13.9822 17.1431 14.2853 17.1431H17.7139C18.017 17.1431 18.3077 17.2635 18.522 17.4778C18.7363 17.6921 18.8567 17.9828 18.8567 18.2859V30.8574ZM7.42815 30.8574H1.71387V21.7145C1.71387 21.4114 1.83427 21.1207 2.0486 20.9064C2.26293 20.692 2.55362 20.5716 2.85672 20.5716H6.2853C6.5884 20.5716 6.87909 20.692 7.09342 20.9064C7.30774 21.1207 7.42815 21.4114 7.42815 21.7145V30.8574Z" stroke="#7F7F7F" stroke-width="2" stroke-linecap="round" stroke-linejoin="round"/>
</g>
<defs>
<clipPath id="clip0_64_930">
<rect width="32" height="32" fill="white"/>
</clipPath>
</defs>
</svg>
