<svg width="32" height="32" viewBox="0 0 32 32" fill="none" xmlns="http://www.w3.org/2000/svg">
<path d="M1.48535 26.729V18.4547L8.72421 15.353L15.9631 18.457V26.729L8.72421 29.8285L1.48535 26.729Z" stroke="white" stroke-linecap="round" stroke-linejoin="round"/>
<path d="M1.48535 18.4391L8.72421 21.5408L15.9631 18.4391M8.72421 7.13623L15.9608 10.2402L23.1996 7.13852" stroke="white" stroke-linecap="round" stroke-linejoin="round"/>
<path d="M15.9609 18.439L23.1998 21.5407L30.4387 18.439" stroke="white" stroke-linecap="round" stroke-linejoin="round"/>
<path d="M8.72461 21.5452V29.8309M23.2046 21.5452V29.8309M15.9612 10.2401V18.5235M8.72918 15.3487V7.07437L15.9658 3.97266L23.2046 7.07437V15.3487L15.9658 18.4504L8.72918 15.3487ZM15.9612 26.7292V18.4549L23.2 15.3532L30.4389 18.4572V26.7292L23.2 29.8287L15.9612 26.7292Z" stroke="white" stroke-linecap="round" stroke-linejoin="round"/>
</svg>
