<svg width="32" height="32" viewBox="0 0 32 32" fill="none" xmlns="http://www.w3.org/2000/svg">
<path d="M11.4331 22.6566H27.0628C27.5846 22.6566 28.04 22.228 28.04 21.652C28.04 21.076 27.5846 20.6474 27.0628 20.6474H11.6606C10.8971 20.6474 10.4286 20.1114 10.308 19.2949L10.0937 17.8886H27.0891C29.0446 17.8886 30.0491 16.6829 30.3303 14.768L31.4017 7.68286C31.4304 7.51466 31.4484 7.34479 31.4554 7.17429C31.4554 6.53143 30.9731 6.08915 30.2366 6.08915H8.36627L8.11141 4.38858C7.9777 3.35715 7.60284 2.83429 6.23713 2.83429H1.53541C0.999984 2.83429 0.544556 3.304 0.544556 3.84C0.544556 4.38858 0.999984 4.85772 1.53598 4.85772H6.06227L8.20513 19.5629C8.48684 21.4646 9.49084 22.6566 11.4331 22.6566ZM29.1783 8.11143L28.2286 14.5269C28.1211 15.3571 27.6794 15.8663 26.8891 15.8663L9.79998 15.8794L8.66113 8.11143H29.1783ZM12.4914 29.1657C12.777 29.1681 13.0602 29.1136 13.3245 29.0054C13.5888 28.8972 13.8289 28.7374 14.0309 28.5355C14.2328 28.3335 14.3926 28.0934 14.5008 27.8291C14.609 27.5648 14.6635 27.2816 14.6611 26.996C14.6624 26.7107 14.6072 26.428 14.4986 26.1642C14.39 25.9003 14.2302 25.6606 14.0285 25.4589C13.8268 25.2572 13.5871 25.0974 13.3232 24.9888C13.0594 24.8802 12.7767 24.825 12.4914 24.8263C11.2731 24.8263 10.3086 25.7909 10.3086 26.996C10.3086 28.2149 11.2731 29.1657 12.4914 29.1657ZM25.0137 29.1657C26.2326 29.1657 27.1966 28.2149 27.1966 26.996C27.1966 25.7903 26.2326 24.8263 25.0137 24.8263C23.8086 24.8263 22.8308 25.7909 22.8308 26.996C22.8308 28.2149 23.8086 29.1657 25.0137 29.1657Z" fill="#FFA500"/>
</svg>
