<svg width="32" height="23" viewBox="0 0 32 23" fill="none" xmlns="http://www.w3.org/2000/svg">
<path d="M31.6999 19.0983C31.7174 18.7483 31.8774 17.7708 31.8724 17.5808C31.8549 15.1458 30.3099 7.12081 30.0624 5.16581L30.0474 5.04581C29.9624 4.27831 29.9299 3.36581 29.6474 2.64081C29.3624 1.91081 28.4399 1.65581 27.7749 1.39831C25.0224 0.348311 21.9149 -0.53669 18.9949 0.38831C17.8549 0.74831 16.8274 1.39081 16.0024 2.40331C15.1799 1.39081 14.1499 0.74831 13.0124 0.38831C10.0924 -0.53669 6.98494 0.348311 4.23244 1.39831C3.56744 1.65331 2.63994 1.90831 2.35744 2.64081C2.07494 3.36581 2.04244 4.27581 1.95744 5.04581L1.94244 5.16581C1.69494 7.12081 0.152437 15.1458 0.132437 17.5808C0.127437 17.7733 0.289937 18.7483 0.307437 19.0983C0.332437 19.6033 0.272437 20.1108 0.297437 20.6133C0.247437 20.7883 0.292437 20.9533 0.399937 21.0833C0.469937 21.2183 0.577437 21.3008 0.694937 21.3433C0.962437 21.6383 1.44744 21.4433 1.76494 21.3433C4.60994 20.4233 7.73744 20.4583 10.6724 20.8483C11.1924 20.9158 11.7099 21.0008 12.2249 21.1008C12.7599 21.2058 13.2674 21.3958 13.7799 21.5783C14.2024 21.7283 14.6449 21.8533 15.0899 21.9383C15.4099 22.0108 15.7224 22.0408 15.8649 22.0433C15.9149 22.0433 15.9599 22.0383 16.0074 22.0358C16.0549 22.0358 16.1024 22.0433 16.1499 22.0433C16.2924 22.0433 16.6049 22.0133 16.9249 21.9383C17.3699 21.8533 17.8124 21.7283 18.2349 21.5783C18.7474 21.3958 19.2574 21.2058 19.7924 21.1008C20.3074 21.0008 20.8249 20.9158 21.3449 20.8483C24.2774 20.4583 27.4074 20.4233 30.2524 21.3433C30.5674 21.4458 31.0524 21.6383 31.3199 21.3433C31.4399 21.3008 31.5449 21.2183 31.6149 21.0833C31.7224 20.9533 31.7674 20.7883 31.7174 20.6133C31.7349 20.1083 31.6749 19.6033 31.6999 19.0983ZM9.08994 15.8308C7.94244 15.7933 6.79244 15.8508 5.65744 16.0108C4.68244 16.1483 3.71994 16.3658 2.78244 16.6583C2.55494 16.7283 2.29994 16.7858 2.08494 16.8933C1.94744 16.9633 1.83494 17.0433 1.71244 16.8908C1.54244 16.6858 1.65494 16.3133 1.68244 16.0783C1.73744 15.6058 1.79994 15.1358 1.87244 14.6658C2.18744 12.5733 2.60994 10.5008 2.89744 8.40331C3.02244 7.47581 3.12494 6.54081 3.24494 5.61331C3.30494 5.13581 3.37244 4.65831 3.44994 4.18331C3.54494 3.60081 3.56494 3.19081 4.10994 2.83831C5.03744 2.23831 6.14994 1.97331 7.21244 1.71581C8.35744 1.43831 9.49994 1.20331 10.6849 1.24831C11.5149 1.28081 12.3224 1.50081 13.0549 1.88831C13.4099 2.07581 13.7499 2.29581 14.0724 2.53831C14.3924 2.77581 14.7824 3.03081 15.0374 3.33581C15.2649 3.60581 15.3374 3.85081 15.3599 4.13081C15.2024 7.71331 15.2274 16.5958 15.2549 17.2258C15.2574 17.2783 15.2624 17.3308 15.2649 17.3833C15.2524 17.4508 15.2149 17.5033 15.1049 17.5033C14.9724 17.5058 14.8274 17.4183 14.7124 17.3583C14.4749 17.2333 14.2349 17.1133 13.9949 17.0008C12.4424 16.2683 10.8074 15.8858 9.08994 15.8308ZM30.2874 16.8883C30.1624 17.0408 30.0524 16.9608 29.9149 16.8908C29.7024 16.7833 29.4474 16.7258 29.2174 16.6558C28.2799 16.3633 27.3174 16.1483 26.3424 16.0083C25.2074 15.8483 24.0549 15.7933 22.9074 15.8283C21.1924 15.8833 19.5574 16.2658 18.0024 16.9983C17.7624 17.1133 17.5224 17.2333 17.2849 17.3558C17.1699 17.4158 17.0249 17.5008 16.8899 17.5008C16.7799 17.5008 16.7424 17.4483 16.7299 17.3808C16.7324 17.3283 16.7399 17.2758 16.7399 17.2233C16.7674 16.5933 16.7949 7.71081 16.6349 4.12831C16.6574 3.84831 16.7299 3.60331 16.9549 3.33331C17.2149 3.02831 17.6024 2.77081 17.9224 2.53581C18.2449 2.29581 18.5824 2.07331 18.9399 1.88581C19.6749 1.49831 20.4799 1.27831 21.3099 1.24581C22.4949 1.19831 23.6374 1.43581 24.7824 1.71331C25.8449 1.97081 26.9574 2.23331 27.8874 2.83581C28.4324 3.18831 28.4524 3.59831 28.5474 4.18081C28.6249 4.65581 28.6924 5.13331 28.7524 5.61081C28.8699 6.54081 28.9724 7.47331 29.0999 8.40081C29.3874 10.4958 29.8124 12.5708 30.1249 14.6633C30.1924 15.1333 30.2599 15.6033 30.3149 16.0758C30.3449 16.3108 30.4574 16.6833 30.2874 16.8883Z" fill="#9252FE"/>
<path d="M13.2675 4.04591C10.9 2.93591 7.70995 2.87591 5.32745 4.01591C4.69745 4.31841 5.24745 5.23091 5.87245 4.94841C7.89995 4.02341 10.68 4.16341 12.6475 5.10591C13.3575 5.44341 13.98 4.38091 13.2675 4.04591ZM13.1925 6.97091C10.6725 5.86591 7.43245 5.44841 4.88995 6.75841C4.33745 7.04341 4.82245 7.82341 5.36995 7.57841C7.70245 6.53591 10.4975 7.14841 12.765 7.98841C13.3525 8.20841 13.77 7.22341 13.1925 6.97091ZM13.06 9.88841C12.7925 9.66341 12.42 9.55841 12.0975 9.44091C9.75745 8.58591 6.64995 8.55091 4.40245 9.70091C3.90745 9.95341 4.32495 10.6734 4.81245 10.5334C6.03745 10.1859 7.18995 9.99341 8.46245 9.98091C9.45995 9.97091 10.365 10.0759 11.3175 10.3609C11.605 10.4459 11.88 10.4784 12.155 10.6084C12.3525 10.7009 12.5975 10.8184 12.815 10.8459C13.29 10.9034 13.3875 10.2059 13.12 9.94091L13.06 9.88841ZM12.8125 12.7059C10.1075 11.4309 7.07245 11.6659 4.33495 12.6309C3.76995 12.8309 4.03995 13.7009 4.61495 13.5209C5.90245 13.1159 6.97495 12.8134 8.34245 12.7959C9.65745 12.7809 11.085 13.2109 12.29 13.6834C12.9375 13.9409 13.47 13.0159 12.8125 12.7059ZM19.3525 5.10341C21.32 4.16091 24.1 4.02341 26.1275 4.94591C26.75 5.23091 27.3025 4.31591 26.6725 4.01341C24.2925 2.87341 21.1025 2.93341 18.735 4.04341C18.02 4.38091 18.64 5.44341 19.3525 5.10341ZM19.2375 7.98841C21.505 7.14841 24.3 6.53591 26.6325 7.57841C27.18 7.82341 27.665 7.04341 27.1125 6.75841C24.5675 5.44841 21.3275 5.86591 18.81 6.97091C18.2325 7.22341 18.6475 8.20841 19.2375 7.98841ZM19.185 10.8484C19.405 10.8209 19.645 10.7034 19.8425 10.6109C20.12 10.4809 20.395 10.4484 20.6825 10.3634C21.635 10.0809 22.54 9.97591 23.5375 9.98341C24.81 9.99341 25.965 10.1859 27.19 10.5359C27.675 10.6759 28.0925 9.95341 27.6 9.70341C25.3525 8.55341 22.2425 8.58841 19.905 9.44341C19.5825 9.56091 19.21 9.66341 18.94 9.89091L18.88 9.94591C18.61 10.2059 18.7125 10.9059 19.185 10.8484ZM27.6675 12.6309C24.93 11.6659 21.895 11.4309 19.19 12.7059C18.5325 13.0159 19.065 13.9409 19.715 13.6834C20.9175 13.2109 22.3425 12.7809 23.66 12.7959C25.025 12.8134 26.1 13.1159 27.385 13.5209C27.9625 13.7034 28.2325 12.8309 27.6675 12.6309Z" fill="#9252FE"/>
</svg>
