<svg width="31" height="28" viewBox="0 0 31 28" fill="none" xmlns="http://www.w3.org/2000/svg">
<path d="M1 23.7293V15.455L8.23886 12.3533L15.4777 15.4573V23.7293L8.23886 26.8287L1 23.7293Z" stroke="#7F7F7F" stroke-width="1.5" stroke-linecap="round" stroke-linejoin="round"/>
<path d="M1 15.4388L8.23886 18.5406L15.4777 15.4388M8.23886 4.13599L15.4754 7.23999L22.7143 4.13827" stroke="#7F7F7F" stroke-width="1.5" stroke-linecap="round" stroke-linejoin="round"/>
<path d="M15.4753 15.439L22.7142 18.5407L29.9531 15.439" stroke="#7F7F7F" stroke-width="1.5" stroke-linecap="round" stroke-linejoin="round"/>
<path d="M8.23877 18.5452V26.8309M22.7188 18.5452V26.8309M15.4753 7.24009V15.5235M8.24334 12.3487V4.07437L15.4799 0.972656L22.7188 4.07437V12.3487L15.4799 15.4504L8.24334 12.3487ZM15.4753 23.7292V15.4549L22.7142 12.3532L29.9531 15.4572V23.7292L22.7142 26.8287L15.4753 23.7292Z" stroke="#7F7F7F" stroke-width="1.5" stroke-linecap="round" stroke-linejoin="round"/>
</svg>
