<svg width="28" height="22" viewBox="0 0 28 22" fill="none" xmlns="http://www.w3.org/2000/svg">
<path d="M19.9088 4.2925L18.245 1.66375C17.8944 1.255 17.4137 1 16.875 1H11.125C10.5863 1 10.1056 1.255 9.755 1.66375L8.09125 4.2925C7.74063 4.70187 7.28875 5 6.75 5H3C2.46957 5 1.96086 5.21071 1.58579 5.58579C1.21071 5.96086 1 6.46957 1 7V19C1 19.5304 1.21071 20.0391 1.58579 20.4142C1.96086 20.7893 2.46957 21 3 21H25C25.5304 21 26.0391 20.7893 26.4142 20.4142C26.7893 20.0391 27 19.5304 27 19V7C27 6.46957 26.7893 5.96086 26.4142 5.58579C26.0391 5.21071 25.5304 5 25 5H21.3125C20.7719 5 20.2594 4.70187 19.9088 4.2925Z" stroke="#9252FE" stroke-width="2" stroke-linecap="round" stroke-linejoin="round"/>
<path d="M14 17C16.7614 17 19 14.7614 19 12C19 9.23858 16.7614 7 14 7C11.2386 7 9 9.23858 9 12C9 14.7614 11.2386 17 14 17Z" stroke="#9252FE" stroke-width="2" stroke-miterlimit="10"/>
<path d="M5.75 4.875V3.5H4.25V4.875" stroke="#9252FE" stroke-width="2" stroke-linecap="round" stroke-linejoin="round"/>
</svg>
