<svg width="22" height="28" viewBox="0 0 22 28" fill="none" xmlns="http://www.w3.org/2000/svg">
<path fill-rule="evenodd" clip-rule="evenodd" d="M10.6669 2.00008C9.95966 2.00008 9.28139 2.28103 8.78129 2.78113C8.28119 3.28123 8.00024 3.9595 8.00024 4.66675C8.00024 5.37399 8.28119 6.05227 8.78129 6.55237C9.28139 7.05246 9.95966 7.33341 10.6669 7.33341C11.3742 7.33341 12.0524 7.05246 12.5525 6.55237C13.0526 6.05227 13.3336 5.37399 13.3336 4.66675C13.3336 3.9595 13.0526 3.28123 12.5525 2.78113C12.0524 2.28103 11.3742 2.00008 10.6669 2.00008ZM6.66691 4.66675C6.66691 3.60588 7.08833 2.58847 7.83848 1.83832C8.58862 1.08818 9.60604 0.666748 10.6669 0.666748C11.7278 0.666748 12.7452 1.08818 13.4953 1.83832C14.2455 2.58847 14.6669 3.60588 14.6669 4.66675C14.6669 5.72761 14.2455 6.74503 13.4953 7.49517C12.7452 8.24532 11.7278 8.66675 10.6669 8.66675C9.60604 8.66675 8.58862 8.24532 7.83848 7.49517C7.08833 6.74503 6.66691 5.72761 6.66691 4.66675ZM4.87224 10.9747C5.07467 10.4888 5.41642 10.0736 5.85443 9.78146C6.29244 9.48938 6.80711 9.33348 7.33357 9.33341H14.0002C14.5267 9.33348 15.0414 9.48938 15.4794 9.78146C15.9174 10.0736 16.2591 10.4888 16.4616 10.9747L18.1282 14.9747C18.8169 16.6261 17.7162 18.4367 16.0002 18.6467V19.2614C16.0002 19.3745 16.029 19.4857 16.0838 19.5846C16.1386 19.6835 16.2177 19.7668 16.3136 19.8267L20.0122 22.1381C20.5299 22.4616 20.9282 22.9449 21.1469 23.5148C21.3656 24.0847 21.3929 24.7103 21.2246 25.2971C21.0563 25.8839 20.7016 26.4 20.2141 26.7673C19.7265 27.1347 19.1327 27.3334 18.5222 27.3334H2.80891C2.19833 27.3335 1.60436 27.1345 1.11696 26.7668C0.62956 26.399 0.275277 25.8824 0.107766 25.2953C-0.0597441 24.7081 -0.0313575 24.0824 0.188627 23.5128C0.408612 22.9432 0.808211 22.4609 1.32691 22.1387L5.05224 19.8254C5.14856 19.7655 5.22801 19.6821 5.28308 19.5829C5.33814 19.4837 5.36699 19.3722 5.36691 19.2587V18.6501C3.63157 18.4601 2.51291 16.6367 3.20557 14.9741L4.87224 10.9747ZM6.70024 18.6667V19.2587C6.7002 19.5988 6.61343 19.9333 6.44813 20.2306C6.28284 20.5278 6.04447 20.778 5.75557 20.9574L2.03091 23.2707C1.75816 23.4398 1.54796 23.6932 1.43218 23.9924C1.3164 24.2917 1.30136 24.6206 1.38932 24.9292C1.47729 25.2378 1.66347 25.5093 1.91965 25.7025C2.17582 25.8958 2.48802 26.0002 2.80891 26.0001H14.6669C14.8437 26.0001 15.0133 25.9298 15.1383 25.8048C15.2633 25.6798 15.3336 25.5102 15.3336 25.3334V25.2467C15.3334 25.0778 15.2691 24.9151 15.1537 24.7917C15.0382 24.6683 14.8802 24.5934 14.7116 24.5821L5.98891 23.9987C5.81245 23.9869 5.64793 23.9054 5.53153 23.7723C5.41513 23.6391 5.35639 23.4652 5.36824 23.2887C5.38009 23.1123 5.46155 22.9478 5.5947 22.8314C5.72785 22.715 5.90178 22.6562 6.07824 22.6681L14.8002 23.2514C15.3065 23.2852 15.7811 23.5103 16.1277 23.8809C16.4743 24.2515 16.667 24.74 16.6669 25.2474V25.3334C16.6669 25.5667 16.6269 25.7914 16.5536 26.0001H18.5222C18.8432 26.0001 19.1554 25.8956 19.4117 25.7025C19.668 25.5093 19.8545 25.238 19.9429 24.9295C20.0314 24.621 20.0171 24.2921 19.9021 23.9925C19.7871 23.6929 19.5777 23.4388 19.3056 23.2687L15.6069 20.9567C15.3193 20.777 15.0821 20.527 14.9176 20.2303C14.7532 19.9336 14.6669 19.6 14.6669 19.2607V18.6667H12.8289C12.4786 18.6668 12.1318 18.5978 11.8082 18.4637C11.4846 18.3296 11.1906 18.1331 10.9429 17.8854L10.6669 17.6094L10.3909 17.8854C10.1433 18.1331 9.84924 18.3296 9.52563 18.4637C9.20203 18.5978 8.85518 18.6668 8.50491 18.6667H6.70024ZM11.3336 16.3907L11.8856 16.9427C12.0094 17.0666 12.1565 17.1649 12.3184 17.232C12.4802 17.299 12.6537 17.3335 12.8289 17.3334H15.6669C15.8865 17.3334 16.1026 17.2792 16.2962 17.1756C16.4898 17.072 16.6548 16.9222 16.7765 16.7395C16.8983 16.5568 16.9731 16.3468 16.9942 16.1283C17.0153 15.9098 16.9821 15.6894 16.8976 15.4867L15.2309 11.4867C15.1296 11.2439 14.9587 11.0364 14.7397 10.8905C14.5207 10.7446 14.2634 10.6667 14.0002 10.6667H7.33357C7.07042 10.6667 6.81314 10.7446 6.59414 10.8905C6.37514 11.0364 6.20422 11.2439 6.10291 11.4867L4.43624 15.4867C4.35171 15.6894 4.31853 15.9098 4.33964 16.1283C4.36076 16.3468 4.43551 16.5568 4.55727 16.7395C4.67903 16.9222 4.84403 17.072 5.0376 17.1756C5.23118 17.2792 5.44735 17.3334 5.66691 17.3334H8.50491C8.6801 17.3335 8.85359 17.299 9.01545 17.232C9.17731 17.1649 9.32438 17.0666 9.44824 16.9427L10.0002 16.3907V14.8441C9.84957 14.9307 9.71357 15.0494 9.60024 15.2001L9.20024 15.7334C9.13814 15.8162 9.05762 15.8834 8.96505 15.9297C8.87248 15.976 8.7704 16.0001 8.66691 16.0001H6.66691C6.55331 16 6.44162 15.9709 6.34242 15.9156C6.24322 15.8602 6.15982 15.7805 6.10011 15.6838C6.0404 15.5872 6.00638 15.4769 6.00127 15.3634C5.99616 15.2499 6.02013 15.137 6.07091 15.0354L6.73757 13.7021C6.77502 13.621 6.82836 13.5483 6.89443 13.4883C6.9605 13.4282 7.03797 13.3821 7.12222 13.3525C7.20647 13.323 7.2958 13.3107 7.38491 13.3163C7.47401 13.322 7.56107 13.3454 7.64093 13.3854C7.72079 13.4253 7.79181 13.4809 7.84978 13.5488C7.90776 13.6167 7.9515 13.6955 7.97843 13.7806C8.00535 13.8658 8.01489 13.9554 8.0065 14.0443C7.99811 14.1332 7.97195 14.2195 7.92957 14.2981L7.74557 14.6667H8.33357L8.53357 14.4001C9.60024 12.9781 11.7336 12.9781 12.8002 14.4001L13.0002 14.6667H13.5882L13.4042 14.2981C13.3619 14.2195 13.3357 14.1332 13.3273 14.0443C13.3189 13.9554 13.3285 13.8658 13.3554 13.7806C13.3823 13.6955 13.4261 13.6167 13.484 13.5488C13.542 13.4809 13.613 13.4253 13.6929 13.3854C13.7727 13.3454 13.8598 13.322 13.9489 13.3163C14.038 13.3107 14.1273 13.323 14.2116 13.3525C14.2958 13.3821 14.3733 13.4282 14.4394 13.4883C14.5055 13.5483 14.5588 13.621 14.5962 13.7021L15.2629 15.0354C15.3137 15.137 15.3377 15.2499 15.3325 15.3634C15.3274 15.4769 15.2934 15.5872 15.2337 15.6838C15.174 15.7805 15.0906 15.8602 14.9914 15.9156C14.8922 15.9709 14.7805 16 14.6669 16.0001H12.6669C12.5634 16.0001 12.4613 15.976 12.3688 15.9297C12.2762 15.8834 12.1957 15.8162 12.1336 15.7334L11.7336 15.2001C11.6257 15.0556 11.4896 14.9345 11.3336 14.8441V16.3907Z" fill="#7F7F7F"/>
</svg>
