<svg width="32" height="32" viewBox="0 0 32 32" fill="none" xmlns="http://www.w3.org/2000/svg">
<path fill-rule="evenodd" clip-rule="evenodd" d="M16 4C15.2928 4 14.6145 4.28095 14.1144 4.78105C13.6143 5.28114 13.3334 5.95942 13.3334 6.66666C13.3334 7.37391 13.6143 8.05219 14.1144 8.55228C14.6145 9.05238 15.2928 9.33333 16 9.33333C16.7073 9.33333 17.3856 9.05238 17.8857 8.55228C18.3858 8.05219 18.6667 7.37391 18.6667 6.66666C18.6667 5.95942 18.3858 5.28114 17.8857 4.78105C17.3856 4.28095 16.7073 4 16 4ZM12 6.66666C12 5.6058 12.4215 4.58838 13.1716 3.83824C13.9218 3.08809 14.9392 2.66666 16 2.66666C17.0609 2.66666 18.0783 3.08809 18.8285 3.83824C19.5786 4.58838 20 5.6058 20 6.66666C20 7.72753 19.5786 8.74495 18.8285 9.49509C18.0783 10.2452 17.0609 10.6667 16 10.6667C14.9392 10.6667 13.9218 10.2452 13.1716 9.49509C12.4215 8.74495 12 7.72753 12 6.66666ZM10.2054 12.9747C10.4078 12.4887 10.7495 12.0735 11.1876 11.7814C11.6256 11.4893 12.1402 11.3334 12.6667 11.3333H19.3334C19.8598 11.3334 20.3745 11.4893 20.8125 11.7814C21.2505 12.0735 21.5923 12.4887 21.7947 12.9747L23.4614 16.9747C24.15 18.626 23.0494 20.4367 21.3334 20.6467V21.2613C21.3334 21.3744 21.3621 21.4856 21.4169 21.5845C21.4718 21.6834 21.5508 21.7667 21.6467 21.8267L25.3454 24.138C25.863 24.4615 26.2613 24.9448 26.48 25.5147C26.6988 26.0846 26.726 26.7102 26.5577 27.297C26.3895 27.8838 26.0347 28.3999 25.5472 28.7673C25.0597 29.1346 24.4658 29.3333 23.8554 29.3333H8.14204C7.53146 29.3334 6.93749 29.1345 6.45009 28.7667C5.96269 28.3989 5.60841 27.8824 5.4409 27.2952C5.27339 26.7081 5.30177 26.0823 5.52176 25.5127C5.74174 24.9432 6.14134 24.4608 6.66004 24.1387L10.3854 21.8253C10.4817 21.7654 10.5611 21.682 10.6162 21.5828C10.6713 21.4837 10.7001 21.3721 10.7 21.2587V20.65C8.9647 20.46 7.84604 18.6367 8.5387 16.974L10.2054 12.9747ZM12.0334 20.6667V21.2587C12.0333 21.5988 11.9466 21.9332 11.7813 22.2305C11.616 22.5277 11.3776 22.7779 11.0887 22.9573L7.36404 25.2707C7.09129 25.4397 6.88109 25.6931 6.76531 25.9924C6.64953 26.2916 6.63449 26.6205 6.72245 26.9291C6.81042 27.2377 6.9966 27.5092 7.25278 27.7025C7.50895 27.8957 7.82115 28.0002 8.14204 28H20C20.1768 28 20.3464 27.9298 20.4714 27.8047C20.5965 27.6797 20.6667 27.5101 20.6667 27.3333V27.2467C20.6666 27.0777 20.6023 26.915 20.4868 26.7916C20.3713 26.6683 20.2133 26.5933 20.0447 26.582L11.322 25.9987C11.1456 25.9868 10.9811 25.9054 10.8647 25.7722C10.7483 25.6391 10.6895 25.4651 10.7014 25.2887C10.7132 25.1122 10.7947 24.9477 10.9278 24.8313C11.061 24.7149 11.2349 24.6561 11.4114 24.668L20.1334 25.2513C20.6397 25.2852 21.1142 25.5102 21.4608 25.8808C21.8074 26.2514 22.0002 26.7399 22 27.2473V27.3333C22 27.5667 21.96 27.7913 21.8867 28H23.8554C24.1763 28 24.4885 27.8955 24.7448 27.7024C25.0011 27.5093 25.1876 27.2379 25.2761 26.9295C25.3646 26.621 25.3502 26.2921 25.2352 25.9924C25.1202 25.6928 24.9108 25.4388 24.6387 25.2687L20.94 22.9567C20.6524 22.7769 20.4152 22.5269 20.2507 22.2302C20.0863 21.9335 20 21.5999 20 21.2607V20.6667H18.162C17.8118 20.6667 17.4649 20.5977 17.1413 20.4636C16.8177 20.3296 16.5237 20.133 16.276 19.8853L16 19.6093L15.724 19.8853C15.4764 20.133 15.1824 20.3296 14.8588 20.4636C14.5352 20.5977 14.1883 20.6667 13.838 20.6667H12.0334ZM16.6667 18.3907L17.2187 18.9427C17.3426 19.0666 17.4896 19.1648 17.6515 19.2319C17.8134 19.2989 17.9868 19.3334 18.162 19.3333H21C21.2196 19.3333 21.4358 19.2791 21.6293 19.1755C21.8229 19.0719 21.9879 18.9221 22.1097 18.7394C22.2314 18.5567 22.3062 18.3468 22.3273 18.1282C22.3484 17.9097 22.3152 17.6893 22.2307 17.4867L20.564 13.4867C20.4627 13.2438 20.2918 13.0363 20.0728 12.8904C19.8538 12.7445 19.5965 12.6666 19.3334 12.6667H12.6667C12.4035 12.6666 12.1463 12.7445 11.9273 12.8904C11.7083 13.0363 11.5374 13.2438 11.436 13.4867L9.76937 17.4867C9.68484 17.6893 9.65166 17.9097 9.67277 18.1282C9.69389 18.3468 9.76864 18.5567 9.8904 18.7394C10.0122 18.9221 10.1772 19.0719 10.3707 19.1755C10.5643 19.2791 10.7805 19.3333 11 19.3333H13.838C14.0132 19.3334 14.1867 19.2989 14.3486 19.2319C14.5104 19.1648 14.6575 19.0666 14.7814 18.9427L15.3334 18.3907V16.844C15.1827 16.9307 15.0467 17.0493 14.9334 17.2L14.5334 17.7333C14.4713 17.8161 14.3907 17.8833 14.2982 17.9296C14.2056 17.9759 14.1035 18 14 18H12C11.8864 17.9999 11.7747 17.9709 11.6756 17.9155C11.5764 17.8602 11.4929 17.7804 11.4332 17.6837C11.3735 17.5871 11.3395 17.4768 11.3344 17.3633C11.3293 17.2498 11.3533 17.1369 11.404 17.0353L12.0707 15.702C12.1081 15.6209 12.1615 15.5482 12.2276 15.4882C12.2936 15.4281 12.3711 15.382 12.4554 15.3524C12.5396 15.3229 12.6289 15.3106 12.718 15.3162C12.8071 15.3219 12.8942 15.3454 12.9741 15.3853C13.0539 15.4252 13.1249 15.4808 13.1829 15.5487C13.2409 15.6166 13.2846 15.6954 13.3116 15.7806C13.3385 15.8657 13.348 15.9553 13.3396 16.0442C13.3312 16.1331 13.3051 16.2194 13.2627 16.298L13.0787 16.6667H13.6667L13.8667 16.4C14.9334 14.978 17.0667 14.978 18.1334 16.4L18.3334 16.6667H18.9214L18.7374 16.298C18.695 16.2194 18.6688 16.1331 18.6604 16.0442C18.652 15.9553 18.6616 15.8657 18.6885 15.7806C18.7154 15.6954 18.7592 15.6166 18.8172 15.5487C18.8751 15.4808 18.9462 15.4252 19.026 15.3853C19.1059 15.3454 19.1929 15.3219 19.282 15.3162C19.3711 15.3106 19.4605 15.3229 19.5447 15.3524C19.629 15.382 19.7064 15.4281 19.7725 15.4882C19.8386 15.5482 19.8919 15.6209 19.9294 15.702L20.596 17.0353C20.6468 17.1369 20.6708 17.2498 20.6657 17.3633C20.6606 17.4768 20.6265 17.5871 20.5668 17.6837C20.5071 17.7804 20.4237 17.8602 20.3245 17.9155C20.2253 17.9709 20.1136 17.9999 20 18H18C17.8965 18 17.7945 17.9759 17.7019 17.9296C17.6093 17.8833 17.5288 17.8161 17.4667 17.7333L17.0667 17.2C16.9588 17.0555 16.8227 16.9344 16.6667 16.844V18.3907Z" fill="#FFA500"/>
</svg>
