<svg width="32" height="32" viewBox="0 0 32 32" fill="none" xmlns="http://www.w3.org/2000/svg">
<path d="M1.48572 26.7291V18.4548L8.72457 15.3531L15.9634 18.4571V26.7291L8.72457 29.8286L1.48572 26.7291Z" stroke="#FFA500" stroke-linecap="round" stroke-linejoin="round"/>
<path d="M1.48572 18.4388L8.72457 21.5406L15.9634 18.4388M8.72457 7.13599L15.9611 10.24L23.2 7.13827" stroke="#FFA500" stroke-linecap="round" stroke-linejoin="round"/>
<path d="M15.9612 18.4389L23.2 21.5406L30.4389 18.4389" stroke="#FFA500" stroke-linecap="round" stroke-linejoin="round"/>
<path d="M8.72461 21.5451V29.8309M23.2046 21.5451V29.8309M15.9612 10.24V18.5234M8.72918 15.3486V7.07428L15.9658 3.97256L23.2046 7.07428V15.3486L15.9658 18.4503L8.72918 15.3486ZM15.9612 26.7291V18.4549L23.2 15.3531L30.4389 18.4571V26.7291L23.2 29.8286L15.9612 26.7291Z" stroke="#FFA500" stroke-linecap="round" stroke-linejoin="round"/>
</svg>
