<svg width="33" height="32" viewBox="0 0 33 32" fill="none" xmlns="http://www.w3.org/2000/svg">
<path d="M30.5 20.6763V16.75C30.5021 16.3195 30.3643 15.8999 30.1073 15.5546C29.8503 15.2092 29.488 14.9566 29.075 14.835L29.0488 14.8275L24.5 13.5887V9C24.5 8.73478 24.3946 8.48043 24.2071 8.29289C24.0196 8.10536 23.7652 8 23.5 8C23.2348 8 22.9804 8.10536 22.7929 8.29289C22.6054 8.48043 22.5 8.73478 22.5 9V13.0475L19.5 12.235V7H20.5C20.7652 7 21.0196 6.89464 21.2071 6.70711C21.3946 6.51957 21.5 6.26522 21.5 6C21.5 5.73478 21.3946 5.48043 21.2071 5.29289C21.0196 5.10536 20.7652 5 20.5 5H5.5C5.23479 5 4.98043 5.10536 4.7929 5.29289C4.60536 5.48043 4.5 5.73478 4.5 6C4.5 6.26522 4.60536 6.51957 4.7929 6.70711C4.98043 6.89464 5.23479 7 5.5 7H6.5V11H5.5C5.23479 11 4.98043 11.1054 4.7929 11.2929C4.60536 11.4804 4.5 11.7348 4.5 12C4.5 12.2652 4.60536 12.5196 4.7929 12.7071C4.98043 12.8946 5.23479 13 5.5 13H9C11.2536 13.0023 13.4143 13.8986 15.0079 15.4922C16.6014 17.0857 17.4977 19.2464 17.5 21.5V23C17.5 23.2652 17.6054 23.5196 17.7929 23.7071C17.9804 23.8946 18.2348 24 18.5 24H22.5288C22.6054 24.6949 22.8429 25.3624 23.2224 25.9496C23.602 26.5367 24.1131 27.0274 24.7153 27.3826C25.3175 27.7378 25.9941 27.9478 26.6916 27.996C27.3891 28.0442 28.0882 27.9292 28.7335 27.6601C29.3788 27.391 29.9525 26.9753 30.4091 26.4459C30.8658 25.9165 31.1928 25.288 31.3642 24.6102C31.5357 23.9324 31.5468 23.224 31.3968 22.5411C31.2468 21.8583 30.9398 21.2198 30.5 20.6763ZM9 11H8.5V7H17.5V15.3462C16.528 14.0011 15.2507 12.9057 13.7731 12.1501C12.2954 11.3946 10.6596 11.0004 9 11ZM19.5 14.3062L28.5 16.75V19.2625C27.3755 18.8645 26.1389 18.9292 25.0621 19.4426C23.9853 19.9559 23.1564 20.8758 22.7575 22H19.5V14.3062ZM27 26C26.5056 26 26.0222 25.8534 25.6111 25.5787C25.2 25.304 24.8795 24.9135 24.6903 24.4567C24.5011 23.9999 24.4516 23.4972 24.548 23.0123C24.6445 22.5273 24.8826 22.0819 25.2322 21.7322C25.5819 21.3826 26.0273 21.1445 26.5123 21.048C26.9972 20.9516 27.4999 21.0011 27.9567 21.1903C28.4135 21.3795 28.804 21.7 29.0787 22.1111C29.3534 22.5222 29.5 23.0055 29.5 23.5C29.5 24.163 29.2366 24.7989 28.7678 25.2678C28.2989 25.7366 27.663 26 27 26ZM9 15C7.71442 15 6.45772 15.3812 5.3888 16.0954C4.31988 16.8097 3.48676 17.8248 2.99479 19.0126C2.50282 20.2003 2.37409 21.5072 2.6249 22.7681C2.8757 24.029 3.49477 25.1872 4.40381 26.0962C5.31285 27.0052 6.47104 27.6243 7.73192 27.8751C8.99279 28.1259 10.2997 27.9972 11.4874 27.5052C12.6752 27.0132 13.6903 26.1801 14.4046 25.1112C15.1188 24.0423 15.5 22.7856 15.5 21.5C15.498 19.7767 14.8126 18.1246 13.594 16.906C12.3754 15.6874 10.7233 15.002 9 15ZM9 26C8.10999 26 7.23996 25.7361 6.49994 25.2416C5.75992 24.7471 5.18314 24.0443 4.84255 23.2221C4.50195 22.3998 4.41284 21.495 4.58647 20.6221C4.7601 19.7492 5.18869 18.9474 5.81802 18.318C6.44736 17.6887 7.24918 17.2601 8.1221 17.0865C8.99501 16.9128 9.89981 17.0019 10.7221 17.3425C11.5443 17.6831 12.2471 18.2599 12.7416 18.9999C13.2361 19.74 13.5 20.61 13.5 21.5C13.5 22.6935 13.0259 23.8381 12.182 24.682C11.3381 25.5259 10.1935 26 9 26ZM10.5 21.5C10.5 21.7967 10.412 22.0867 10.2472 22.3334C10.0824 22.58 9.84812 22.7723 9.57403 22.8858C9.29994 22.9993 8.99834 23.0291 8.70737 22.9712C8.4164 22.9133 8.14912 22.7704 7.93934 22.5607C7.72956 22.3509 7.5867 22.0836 7.52882 21.7926C7.47095 21.5017 7.50065 21.2001 7.61418 20.926C7.72772 20.6519 7.91997 20.4176 8.16665 20.2528C8.41332 20.088 8.70333 20 9 20C9.39783 20 9.77936 20.158 10.0607 20.4393C10.342 20.7206 10.5 21.1022 10.5 21.5Z" fill="#9252FE"/>
</svg>
