<svg width="33" height="32" viewBox="0 0 33 32" fill="none" xmlns="http://www.w3.org/2000/svg">
<path d="M11.933 22.6565H27.5627C28.0844 22.6565 28.5399 22.2279 28.5399 21.6519C28.5399 21.0759 28.0844 20.6474 27.5627 20.6474H12.1604C11.397 20.6474 10.9284 20.1114 10.8079 19.2948L10.5936 17.8885H27.589C29.5444 17.8885 30.549 16.6828 30.8301 14.7679L31.9016 7.6828C31.9303 7.5146 31.9483 7.34472 31.9553 7.17423C31.9553 6.53137 31.473 6.08909 30.7364 6.08909H8.86615L8.61129 4.38851C8.47758 3.35709 8.10272 2.83423 6.73701 2.83423H2.03529C1.49986 2.83423 1.04443 3.30394 1.04443 3.83994C1.04443 4.38851 1.49986 4.85766 2.03586 4.85766H6.56215L8.70501 19.5628C8.98672 21.4645 9.99072 22.6565 11.933 22.6565ZM29.6782 8.11137L28.7284 14.5268C28.621 15.3571 28.1793 15.8662 27.389 15.8662L10.2999 15.8794L9.16101 8.11137H29.6782ZM12.9913 29.1657C13.2769 29.168 13.5601 29.1135 13.8244 29.0053C14.0887 28.8971 14.3288 28.7374 14.5308 28.5354C14.7327 28.3335 14.8925 28.0933 15.0007 27.829C15.1089 27.5647 15.1634 27.2815 15.161 26.9959C15.1623 26.7107 15.107 26.4279 14.9985 26.1641C14.8899 25.9003 14.7301 25.6606 14.5284 25.4589C14.3266 25.2571 14.0869 25.0974 13.8231 24.9888C13.5593 24.8802 13.2766 24.8249 12.9913 24.8262C11.773 24.8262 10.8084 25.7908 10.8084 26.9959C10.8084 28.2148 11.773 29.1657 12.9913 29.1657ZM25.5136 29.1657C26.7324 29.1657 27.6964 28.2148 27.6964 26.9959C27.6964 25.7902 26.7324 24.8262 25.5136 24.8262C24.3084 24.8262 23.3307 25.7908 23.3307 26.9959C23.3307 28.2148 24.3084 29.1657 25.5136 29.1657Z" fill="#9252FE"/>
</svg>
