<svg width="33" height="32" viewBox="0 0 33 32" fill="none" xmlns="http://www.w3.org/2000/svg">
<path d="M30.03 6.15C29.878 6.06223 29.7055 6.01603 29.53 6.01603C29.3545 6.01603 29.182 6.06223 29.03 6.15L20.5 10.38V7C20.4995 6.82954 20.4554 6.66203 20.3719 6.5134C20.2885 6.36477 20.1684 6.23994 20.0231 6.15076C19.8778 6.06159 19.7122 6.01104 19.5419 6.0039C19.3715 5.99677 19.2022 6.03329 19.05 6.11L10.5 10.38V3C10.5 2.73478 10.3946 2.48043 10.2071 2.29289C10.0196 2.10536 9.76522 2 9.5 2H3.5C3.23478 2 2.98043 2.10536 2.79289 2.29289C2.60536 2.48043 2.5 2.73478 2.5 3V28H30.5V7C30.5003 6.83006 30.4574 6.66283 30.3751 6.51411C30.2929 6.36538 30.1741 6.24007 30.03 6.15ZM22.5 26H18.5V19H22.5V26ZM28.5 26H24.5V18C24.5 17.7348 24.3946 17.4804 24.2071 17.2929C24.0196 17.1054 23.7652 17 23.5 17H17.5C17.2348 17 16.9804 17.1054 16.7929 17.2929C16.6054 17.4804 16.5 17.7348 16.5 18V26H4.5V4H8.5V13.62L18.5 8.62V13.62L28.5 8.62V26Z" fill="#9252FE"/>
</svg>
