<svg width="32" height="32" viewBox="0 0 32 32" fill="none" xmlns="http://www.w3.org/2000/svg">
<path d="M15.5 0V5.469L12.5 7.25V4.219L11 5.156L7.5 7.25V4.219L6 5.156L1 8.156L0.5 8.437V22H22.5V0H15.5ZM17.5 2H20.5V20H2.5V9.531L5.5 7.75V10.781L7 9.844L10.5 7.75V10.781L12 9.844L17 6.844L17.5 6.563V2ZM4.5 12V14H6.5V12H4.5ZM8.5 12V14H10.5V12H8.5ZM12.5 12V14H14.5V12H12.5ZM16.5 12V14H18.5V12H16.5ZM4.5 16V18H6.5V16H4.5ZM8.5 16V18H10.5V16H8.5ZM12.5 16V18H14.5V16H12.5ZM16.5 16V18H18.5V16H16.5Z" fill="#9252FE"/>
</svg>
