<svg width="33" height="32" viewBox="0 0 33 32" fill="none" xmlns="http://www.w3.org/2000/svg">
<path d="M20.5 5V10.469L17.5 12.25V9.219L16 10.156L12.5 12.25V9.219L11 10.156L6 13.156L5.5 13.437V27H27.5V5H20.5ZM22.5 7H25.5V25H7.5V14.531L10.5 12.75V15.781L12 14.844L15.5 12.75V15.781L17 14.844L22 11.844L22.5 11.563V7ZM9.5 17V19H11.5V17H9.5ZM13.5 17V19H15.5V17H13.5ZM17.5 17V19H19.5V17H17.5ZM21.5 17V19H23.5V17H21.5ZM9.5 21V23H11.5V21H9.5ZM13.5 21V23H15.5V21H13.5ZM17.5 21V23H19.5V21H17.5ZM21.5 21V23H23.5V21H21.5Z" fill="#7F7F7F"/>
</svg>
