<svg width="33" height="32" viewBox="0 0 33 32" fill="none" xmlns="http://www.w3.org/2000/svg">
<path d="M1.9856 26.7293V18.455L9.22445 15.3533L16.4633 18.4573V26.7293L9.22445 29.8287L1.9856 26.7293Z" stroke="#7F7F7F" stroke-linecap="round" stroke-linejoin="round"/>
<path d="M1.9856 18.4388L9.22445 21.5406L16.4633 18.4388M9.22445 7.13599L16.461 10.24L23.6999 7.13827" stroke="#7F7F7F" stroke-linecap="round" stroke-linejoin="round"/>
<path d="M16.4609 18.439L23.6998 21.5407L30.9387 18.439" stroke="#7F7F7F" stroke-linecap="round" stroke-linejoin="round"/>
<path d="M9.22437 21.5452V29.8309M23.7044 21.5452V29.8309M16.4609 10.2401V18.5235M9.22894 15.3487V7.07437L16.4655 3.97266L23.7044 7.07437V15.3487L16.4655 18.4504L9.22894 15.3487ZM16.4609 26.7292V18.4549L23.6998 15.3532L30.9386 18.4572V26.7292L23.6998 29.8287L16.4609 26.7292Z" stroke="#7F7F7F" stroke-linecap="round" stroke-linejoin="round"/>
</svg>
