<svg width="31" height="28" viewBox="0 0 31 28" fill="none" xmlns="http://www.w3.org/2000/svg">
<path d="M0.985596 23.7293V15.455L8.22445 12.3533L15.4633 15.4573V23.7293L8.22445 26.8287L0.985596 23.7293Z" stroke="#9252FE" stroke-linecap="round" stroke-linejoin="round"/>
<path d="M0.985596 15.4388L8.22445 18.5406L15.4633 15.4388M8.22445 4.13599L15.461 7.23999L22.6999 4.13827" stroke="#9252FE" stroke-linecap="round" stroke-linejoin="round"/>
<path d="M15.4609 15.439L22.6998 18.5407L29.9387 15.439" stroke="#9252FE" stroke-linecap="round" stroke-linejoin="round"/>
<path d="M8.22437 18.5452V26.8309M22.7044 18.5452V26.8309M15.4609 7.24009V15.5235M8.22894 12.3487V4.07437L15.4655 0.972656L22.7044 4.07437V12.3487L15.4655 15.4504L8.22894 12.3487ZM15.4609 23.7292V15.4549L22.6998 12.3532L29.9386 15.4572V23.7292L22.6998 26.8287L15.4609 23.7292Z" stroke="#9252FE" stroke-linecap="round" stroke-linejoin="round"/>
</svg>
