<svg width="33" height="32" viewBox="0 0 33 32" fill="none" xmlns="http://www.w3.org/2000/svg">
<path fill-rule="evenodd" clip-rule="evenodd" d="M16.4999 4.00008C15.7927 4.00008 15.1144 4.28103 14.6143 4.78113C14.1142 5.28123 13.8332 5.9595 13.8332 6.66675C13.8332 7.37399 14.1142 8.05227 14.6143 8.55237C15.1144 9.05246 15.7927 9.33341 16.4999 9.33341C17.2072 9.33341 17.8854 9.05246 18.3855 8.55237C18.8856 8.05227 19.1666 7.37399 19.1666 6.66675C19.1666 5.9595 18.8856 5.28123 18.3855 4.78113C17.8854 4.28103 17.2072 4.00008 16.4999 4.00008ZM12.4999 6.66675C12.4999 5.60588 12.9213 4.58847 13.6715 3.83832C14.4216 3.08818 15.439 2.66675 16.4999 2.66675C17.5608 2.66675 18.5782 3.08818 19.3283 3.83832C20.0785 4.58847 20.4999 5.60588 20.4999 6.66675C20.4999 7.72761 20.0785 8.74503 19.3283 9.49517C18.5782 10.2453 17.5608 10.6667 16.4999 10.6667C15.439 10.6667 14.4216 10.2453 13.6715 9.49517C12.9213 8.74503 12.4999 7.72761 12.4999 6.66675ZM10.7052 12.9747C10.9077 12.4888 11.2494 12.0736 11.6874 11.7815C12.1254 11.4894 12.6401 11.3335 13.1666 11.3334H19.8332C20.3597 11.3335 20.8744 11.4894 21.3124 11.7815C21.7504 12.0736 22.0922 12.4888 22.2946 12.9747L23.9612 16.9747C24.6499 18.6261 23.5492 20.4367 21.8332 20.6467V21.2614C21.8332 21.3745 21.862 21.4857 21.9168 21.5846C21.9716 21.6835 22.0507 21.7668 22.1466 21.8267L25.8452 24.1381C26.3629 24.4616 26.7612 24.9449 26.9799 25.5148C27.1986 26.0847 27.2259 26.7103 27.0576 27.2971C26.8893 27.8839 26.5346 28.4 26.0471 28.7673C25.5596 29.1347 24.9657 29.3334 24.3552 29.3334H8.64192C8.03133 29.3335 7.43737 29.1345 6.94997 28.7668C6.46257 28.399 6.10828 27.8824 5.94077 27.2953C5.77326 26.7081 5.80165 26.0824 6.02163 25.5128C6.24162 24.9432 6.64122 24.4609 7.15991 24.1387L10.8852 21.8254C10.9816 21.7655 11.061 21.6821 11.1161 21.5829C11.1711 21.4837 11.2 21.3722 11.1999 21.2587V20.6501C9.46458 20.4601 8.34591 18.6367 9.03858 16.9741L10.7052 12.9747ZM12.5332 20.6667V21.2587C12.5332 21.5988 12.4464 21.9333 12.2811 22.2306C12.1158 22.5278 11.8775 22.778 11.5886 22.9574L7.86391 25.2707C7.59116 25.4398 7.38097 25.6932 7.26519 25.9924C7.14941 26.2917 7.13437 26.6206 7.22233 26.9292C7.3103 27.2378 7.49648 27.5093 7.75265 27.7025C8.00883 27.8958 8.32102 28.0002 8.64192 28.0001H20.4999C20.6767 28.0001 20.8463 27.9298 20.9713 27.8048C21.0963 27.6798 21.1666 27.5102 21.1666 27.3334V27.2467C21.1665 27.0778 21.1022 26.9151 20.9867 26.7917C20.8712 26.6683 20.7132 26.5934 20.5446 26.5821L11.8219 25.9987C11.6455 25.9869 11.4809 25.9054 11.3645 25.7723C11.2481 25.6391 11.1894 25.4652 11.2012 25.2887C11.2131 25.1123 11.2946 24.9478 11.4277 24.8314C11.5609 24.715 11.7348 24.6562 11.9112 24.6681L20.6332 25.2514C21.1395 25.2852 21.6141 25.5103 21.9607 25.8809C22.3073 26.2515 22.5 26.74 22.4999 27.2474V27.3334C22.4999 27.5667 22.4599 27.7914 22.3866 28.0001H24.3552C24.6762 28.0001 24.9884 27.8956 25.2447 27.7025C25.501 27.5093 25.6875 27.238 25.776 26.9295C25.8644 26.621 25.8501 26.2921 25.7351 25.9925C25.6201 25.6929 25.4107 25.4388 25.1386 25.2687L21.4399 22.9567C21.1523 22.777 20.9151 22.527 20.7506 22.2303C20.5862 21.9336 20.4999 21.6 20.4999 21.2607V20.6667H18.6619C18.3116 20.6668 17.9648 20.5978 17.6412 20.4637C17.3176 20.3296 17.0236 20.1331 16.7759 19.8854L16.4999 19.6094L16.2239 19.8854C15.9763 20.1331 15.6822 20.3296 15.3586 20.4637C15.035 20.5978 14.6882 20.6668 14.3379 20.6667H12.5332ZM17.1666 18.3907L17.7186 18.9427C17.8424 19.0666 17.9895 19.1649 18.1514 19.232C18.3132 19.299 18.4867 19.3335 18.6619 19.3334H21.4999C21.7195 19.3334 21.9356 19.2792 22.1292 19.1756C22.3228 19.072 22.4878 18.9222 22.6095 18.7395C22.7313 18.5568 22.8061 18.3468 22.8272 18.1283C22.8483 17.9098 22.8151 17.6894 22.7306 17.4867L21.0639 13.4867C20.9626 13.2439 20.7917 13.0364 20.5727 12.8905C20.3537 12.7446 20.0964 12.6667 19.8332 12.6667H13.1666C12.9034 12.6667 12.6461 12.7446 12.4271 12.8905C12.2082 13.0364 12.0372 13.2439 11.9359 13.4867L10.2692 17.4867C10.1847 17.6894 10.1515 17.9098 10.1726 18.1283C10.1938 18.3468 10.2685 18.5568 10.3903 18.7395C10.512 18.9222 10.677 19.072 10.8706 19.1756C11.0642 19.2792 11.2804 19.3334 11.4999 19.3334H14.3379C14.5131 19.3335 14.6866 19.299 14.8485 19.232C15.0103 19.1649 15.1574 19.0666 15.2812 18.9427L15.8332 18.3907V16.8441C15.6826 16.9307 15.5466 17.0494 15.4332 17.2001L15.0332 17.7334C14.9711 17.8162 14.8906 17.8834 14.7981 17.9297C14.7055 17.976 14.6034 18.0001 14.4999 18.0001H12.4999C12.3863 18 12.2746 17.9709 12.1754 17.9156C12.0762 17.8602 11.9928 17.7805 11.9331 17.6838C11.8734 17.5872 11.8394 17.4769 11.8343 17.3634C11.8292 17.2499 11.8531 17.137 11.9039 17.0354L12.5706 15.7021C12.608 15.621 12.6614 15.5483 12.7274 15.4883C12.7935 15.4282 12.871 15.3821 12.9552 15.3525C13.0395 15.323 13.1288 15.3107 13.2179 15.3163C13.307 15.322 13.3941 15.3454 13.4739 15.3854C13.5538 15.4253 13.6248 15.4809 13.6828 15.5488C13.7408 15.6167 13.7845 15.6955 13.8114 15.7806C13.8384 15.8658 13.8479 15.9554 13.8395 16.0443C13.8311 16.1332 13.805 16.2195 13.7626 16.2981L13.5786 16.6667H14.1666L14.3666 16.4001C15.4332 14.9781 17.5666 14.9781 18.6332 16.4001L18.8332 16.6667H19.4212L19.2372 16.2981C19.1949 16.2195 19.1687 16.1332 19.1603 16.0443C19.1519 15.9554 19.1615 15.8658 19.1884 15.7806C19.2153 15.6955 19.2591 15.6167 19.317 15.5488C19.375 15.4809 19.446 15.4253 19.5259 15.3854C19.6057 15.3454 19.6928 15.322 19.7819 15.3163C19.871 15.3107 19.9603 15.323 20.0446 15.3525C20.1289 15.3821 20.2063 15.4282 20.2724 15.4883C20.3385 15.5483 20.3918 15.621 20.4292 15.7021L21.0959 17.0354C21.1467 17.137 21.1707 17.2499 21.1655 17.3634C21.1604 17.4769 21.1264 17.5872 21.0667 17.6838C21.007 17.7805 20.9236 17.8602 20.8244 17.9156C20.7252 17.9709 20.6135 18 20.4999 18.0001H18.4999C18.3964 18.0001 18.2943 17.976 18.2018 17.9297C18.1092 17.8834 18.0287 17.8162 17.9666 17.7334L17.5666 17.2001C17.4587 17.0556 17.3226 16.9345 17.1666 16.8441V18.3907Z" fill="#9252FE"/>
</svg>
