<svg width="41" height="32" viewBox="0 0 41 32" fill="none" xmlns="http://www.w3.org/2000/svg">
<path d="M13.0901 23.4375C11.9426 23.4 10.7926 23.4575 9.65757 23.6175C8.68257 23.755 7.72007 23.9725 6.78257 24.265C6.55507 24.335 6.30007 24.3925 6.08507 24.5C5.94757 24.57 5.83507 24.65 5.71257 24.4975C5.54257 24.2925 5.65507 23.92 5.68257 23.685C5.73757 23.2125 5.80007 22.7425 5.87257 22.2725C6.18757 20.18 6.61007 18.1075 6.89757 16.01C7.02257 15.0825 7.12507 14.1475 7.24507 13.22C7.30507 12.7425 7.37257 12.265 7.45007 11.79C7.54507 11.2075 7.56507 10.7975 8.11007 10.445C9.03757 9.84502 10.1501 9.58002 11.2126 9.32252C12.3576 9.04502 13.5001 8.81002 14.6851 8.85502C15.5151 8.88752 16.3226 9.10752 17.0551 9.49502C17.4101 9.68252 17.7501 9.90252 18.0726 10.145C18.3926 10.3825 18.7826 10.6375 19.0376 10.9425C19.2651 11.2125 19.3376 11.4575 19.3601 11.7375C19.2026 15.32 19.2276 24.2025 19.2551 24.8325C19.2576 24.885 19.2626 24.9375 19.2651 24.99C19.2526 25.0575 19.2151 25.11 19.1051 25.11C18.9726 25.1125 18.8276 25.025 18.7126 24.965C18.4751 24.84 18.2351 24.72 17.9951 24.6075C16.4426 23.875 14.8076 23.4925 13.0901 23.4375ZM34.2876 24.495C34.1626 24.6475 34.0526 24.5675 33.9151 24.4975C33.7026 24.39 33.4476 24.3325 33.2176 24.2625C32.2801 23.97 31.3176 23.755 30.3426 23.615C29.2076 23.455 28.0551 23.4 26.9076 23.435C25.1926 23.49 23.5576 23.8725 22.0026 24.605C21.7626 24.72 21.5226 24.84 21.2851 24.9625C21.1701 25.0225 21.0251 25.1075 20.8901 25.1075C20.7801 25.1075 20.7426 25.055 20.7301 24.9875C20.7326 24.935 20.7401 24.8825 20.7401 24.83C20.7676 24.2 20.7951 15.3175 20.6351 11.735C20.6576 11.455 20.7301 11.21 20.9551 10.94C21.2151 10.635 21.6026 10.3775 21.9226 10.1425C22.2451 9.90252 22.5826 9.68002 22.9401 9.49252C23.6751 9.10502 24.4801 8.88502 25.3101 8.85252C26.4951 8.80502 27.6376 9.04252 28.7826 9.32002C29.8451 9.57752 30.9576 9.84002 31.8876 10.4425C32.4326 10.795 32.4526 11.205 32.5476 11.7875C32.6251 12.2625 32.6926 12.74 32.7526 13.2175C32.8701 14.1475 32.9726 15.08 33.1001 16.0075C33.3876 18.1025 33.8126 20.1775 34.1251 22.27C34.1926 22.74 34.2601 23.21 34.3151 23.6825C34.3451 23.9175 34.4576 24.29 34.2876 24.495Z" fill="white"/>
<path d="M35.6999 26.705C35.7174 26.355 35.8774 25.3775 35.8724 25.1875C35.8549 22.7525 34.3099 14.7275 34.0624 12.7725L34.0474 12.6525C33.9624 11.885 33.9299 10.9725 33.6474 10.2475C33.3624 9.5175 32.4399 9.2625 31.7749 9.005C29.0224 7.955 25.9149 7.07 22.9949 7.995C21.8549 8.355 20.8274 8.9975 20.0024 10.01C19.1799 8.9975 18.1499 8.355 17.0124 7.995C14.0924 7.07 10.9849 7.955 8.23244 9.005C7.56744 9.26 6.63994 9.515 6.35744 10.2475C6.07494 10.9725 6.04244 11.8825 5.95744 12.6525L5.94244 12.7725C5.69494 14.7275 4.15244 22.7525 4.13244 25.1875C4.12744 25.38 4.28994 26.355 4.30744 26.705C4.33244 27.21 4.27244 27.7175 4.29744 28.22C4.24744 28.395 4.29244 28.56 4.39994 28.69C4.46994 28.825 4.57744 28.9075 4.69494 28.95C4.96244 29.245 5.44744 29.05 5.76494 28.95C8.60994 28.03 11.7374 28.065 14.6724 28.455C15.1924 28.5225 15.7099 28.6075 16.2249 28.7075C16.7599 28.8125 17.2674 29.0025 17.7799 29.185C18.2024 29.335 18.6449 29.46 19.0899 29.545C19.4099 29.6175 19.7224 29.6475 19.8649 29.65C19.9149 29.65 19.9599 29.645 20.0074 29.6425C20.0549 29.6425 20.1024 29.65 20.1499 29.65C20.2924 29.65 20.6049 29.62 20.9249 29.545C21.3699 29.46 21.8124 29.335 22.2349 29.185C22.7474 29.0025 23.2574 28.8125 23.7924 28.7075C24.3074 28.6075 24.8249 28.5225 25.3449 28.455C28.2774 28.065 31.4074 28.03 34.2524 28.95C34.5674 29.0525 35.0524 29.245 35.3199 28.95C35.4399 28.9075 35.5449 28.825 35.6149 28.69C35.7224 28.56 35.7674 28.395 35.7174 28.22C35.7349 27.715 35.6749 27.21 35.6999 26.705ZM13.0899 23.4375C11.9424 23.4 10.7924 23.4575 9.65744 23.6175C8.68244 23.755 7.71994 23.9725 6.78244 24.265C6.55494 24.335 6.29994 24.3925 6.08494 24.5C5.94744 24.57 5.83494 24.65 5.71244 24.4975C5.54244 24.2925 5.65494 23.92 5.68244 23.685C5.73744 23.2125 5.79994 22.7425 5.87244 22.2725C6.18744 20.18 6.60994 18.1075 6.89744 16.01C7.02244 15.0825 7.12494 14.1475 7.24494 13.22C7.30494 12.7425 7.37244 12.265 7.44994 11.79C7.54494 11.2075 7.56494 10.7975 8.10994 10.445C9.03744 9.845 10.1499 9.58 11.2124 9.3225C12.3574 9.045 13.4999 8.81 14.6849 8.855C15.5149 8.8875 16.3224 9.1075 17.0549 9.495C17.4099 9.6825 17.7499 9.9025 18.0724 10.145C18.3924 10.3825 18.7824 10.6375 19.0374 10.9425C19.2649 11.2125 19.3374 11.4575 19.3599 11.7375C19.2024 15.32 19.2274 24.2025 19.2549 24.8325C19.2574 24.885 19.2624 24.9375 19.2649 24.99C19.2524 25.0575 19.2149 25.11 19.1049 25.11C18.9724 25.1125 18.8274 25.025 18.7124 24.965C18.4749 24.84 18.2349 24.72 17.9949 24.6075C16.4424 23.875 14.8074 23.4925 13.0899 23.4375ZM34.2874 24.495C34.1624 24.6475 34.0524 24.5675 33.9149 24.4975C33.7024 24.39 33.4474 24.3325 33.2174 24.2625C32.2799 23.97 31.3174 23.755 30.3424 23.615C29.2074 23.455 28.0549 23.4 26.9074 23.435C25.1924 23.49 23.5574 23.8725 22.0024 24.605C21.7624 24.72 21.5224 24.84 21.2849 24.9625C21.1699 25.0225 21.0249 25.1075 20.8899 25.1075C20.7799 25.1075 20.7424 25.055 20.7299 24.9875C20.7324 24.935 20.7399 24.8825 20.7399 24.83C20.7674 24.2 20.7949 15.3175 20.6349 11.735C20.6574 11.455 20.7299 11.21 20.9549 10.94C21.2149 10.635 21.6024 10.3775 21.9224 10.1425C22.2449 9.9025 22.5824 9.68 22.9399 9.4925C23.6749 9.105 24.4799 8.885 25.3099 8.8525C26.4949 8.805 27.6374 9.0425 28.7824 9.32C29.8449 9.5775 30.9574 9.84 31.8874 10.4425C32.4324 10.795 32.4524 11.205 32.5474 11.7875C32.6249 12.2625 32.6924 12.74 32.7524 13.2175C32.8699 14.1475 32.9724 15.08 33.0999 16.0075C33.3874 18.1025 33.8124 20.1775 34.1249 22.27C34.1924 22.74 34.2599 23.21 34.3149 23.6825C34.3449 23.9175 34.4574 24.29 34.2874 24.495Z" fill="#7F7F7F"/>
<path d="M17.2675 11.6526C14.9 10.5426 11.71 10.4826 9.32745 11.6226C8.69745 11.9251 9.24745 12.8376 9.87245 12.5551C11.9 11.6301 14.68 11.7701 16.6475 12.7126C17.3575 13.0501 17.98 11.9876 17.2675 11.6526ZM17.1925 14.5776C14.6725 13.4726 11.4325 13.0551 8.88995 14.3651C8.33745 14.6501 8.82245 15.4301 9.36995 15.1851C11.7025 14.1426 14.4975 14.7551 16.765 15.5951C17.3525 15.8151 17.77 14.8301 17.1925 14.5776ZM17.06 17.4951C16.7925 17.2701 16.42 17.1651 16.0975 17.0476C13.7575 16.1926 10.65 16.1576 8.40245 17.3076C7.90745 17.5601 8.32495 18.2801 8.81245 18.1401C10.0375 17.7926 11.19 17.6001 12.4625 17.5876C13.46 17.5776 14.365 17.6826 15.3175 17.9676C15.605 18.0526 15.88 18.0851 16.155 18.2151C16.3525 18.3076 16.5975 18.4251 16.815 18.4526C17.29 18.5101 17.3875 17.8126 17.12 17.5476L17.06 17.4951ZM16.8125 20.3126C14.1075 19.0376 11.0725 19.2726 8.33495 20.2376C7.76995 20.4376 8.03995 21.3076 8.61495 21.1276C9.90245 20.7226 10.975 20.4201 12.3425 20.4026C13.6575 20.3876 15.085 20.8176 16.29 21.2901C16.9375 21.5476 17.47 20.6226 16.8125 20.3126ZM23.3525 12.7101C25.32 11.7676 28.1 11.6301 30.1275 12.5526C30.75 12.8376 31.3025 11.9226 30.6725 11.6201C28.2925 10.4801 25.1025 10.5401 22.735 11.6501C22.02 11.9876 22.64 13.0501 23.3525 12.7101ZM23.2375 15.5951C25.505 14.7551 28.3 14.1426 30.6325 15.1851C31.18 15.4301 31.665 14.6501 31.1125 14.3651C28.5675 13.0551 25.3275 13.4726 22.81 14.5776C22.2325 14.8301 22.6475 15.8151 23.2375 15.5951ZM23.185 18.4551C23.405 18.4276 23.645 18.3101 23.8425 18.2176C24.12 18.0876 24.395 18.0551 24.6825 17.9701C25.635 17.6876 26.54 17.5826 27.5375 17.5901C28.81 17.6001 29.965 17.7926 31.19 18.1426C31.675 18.2826 32.0925 17.5601 31.6 17.3101C29.3525 16.1601 26.2425 16.1951 23.905 17.0501C23.5825 17.1676 23.21 17.2701 22.94 17.4976L22.88 17.5526C22.61 17.8126 22.7125 18.5126 23.185 18.4551ZM31.6675 20.2376C28.93 19.2726 25.895 19.0376 23.19 20.3126C22.5325 20.6226 23.065 21.5476 23.715 21.2901C24.9175 20.8176 26.3425 20.3876 27.66 20.4026C29.025 20.4201 30.1 20.7226 31.385 21.1276C31.9625 21.3101 32.2325 20.4376 31.6675 20.2376Z" fill="#7F7F7F"/>
</svg>
