<svg width="29" height="26" viewBox="0 0 29 26" fill="none" xmlns="http://www.w3.org/2000/svg">
<path d="M28.03 4.15C27.878 4.06223 27.7055 4.01603 27.53 4.01603C27.3545 4.01603 27.182 4.06223 27.03 4.15L18.5 8.38V5C18.4995 4.82954 18.4554 4.66203 18.3719 4.5134C18.2885 4.36477 18.1684 4.23994 18.0231 4.15076C17.8778 4.06159 17.7122 4.01104 17.5419 4.0039C17.3715 3.99677 17.2022 4.03329 17.05 4.11L8.5 8.38V1C8.5 0.734784 8.39464 0.48043 8.20711 0.292893C8.01957 0.105357 7.76522 0 7.5 0H1.5C1.23478 0 0.98043 0.105357 0.792893 0.292893C0.605357 0.48043 0.5 0.734784 0.5 1V26H28.5V5C28.5003 4.83006 28.4574 4.66283 28.3751 4.51411C28.2929 4.36538 28.1741 4.24007 28.03 4.15ZM20.5 24H16.5V17H20.5V24ZM26.5 24H22.5V16C22.5 15.7348 22.3946 15.4804 22.2071 15.2929C22.0196 15.1054 21.7652 15 21.5 15H15.5C15.2348 15 14.9804 15.1054 14.7929 15.2929C14.6054 15.4804 14.5 15.7348 14.5 16V24H2.5V2H6.5V11.62L16.5 6.62V11.62L26.5 6.62V24Z" fill="#7F7F7F"/>
</svg>
