<svg width="281" height="53" viewBox="0 0 281 53" fill="none" xmlns="http://www.w3.org/2000/svg">
<rect x="228" width="53" height="53" rx="26.5" fill="#4285F4"/>
<path d="M262.417 21.6788C263.447 22.7728 264 23.9998 264 25.9888C264 29.4888 261.543 32.6258 257.97 34.1768L257.077 32.7988C260.412 30.9948 261.064 28.6538 261.324 27.1778C260.787 27.4558 260.084 27.5528 259.395 27.4888C257.591 27.3218 256.169 25.8408 256.169 23.9998C256.169 23.0715 256.538 22.1813 257.194 21.5249C257.851 20.8685 258.741 20.4998 259.669 20.4998C260.182 20.5042 260.69 20.6107 261.161 20.8131C261.633 21.0155 262.06 21.3098 262.417 21.6788ZM252.417 21.6788C253.447 22.7728 254 23.9998 254 25.9888C254 29.4888 251.543 32.6258 247.97 34.1768L247.077 32.7988C250.412 30.9948 251.064 28.6538 251.324 27.1778C250.787 27.4558 250.084 27.5528 249.395 27.4888C247.591 27.3218 246.169 25.8408 246.169 23.9998C246.169 23.0715 246.538 22.1813 247.194 21.5249C247.851 20.8685 248.741 20.4998 249.669 20.4998C250.182 20.5042 250.69 20.6107 251.161 20.8131C251.633 21.0155 252.06 21.3098 252.417 21.6788Z" fill="white"/>
</svg>
