<svg width="33" height="32" viewBox="0 0 33 32" fill="none" xmlns="http://www.w3.org/2000/svg">
<path d="M3.33436 14.9485L29.6201 2.99425M29.6201 2.99425L24.7058 1.14282M29.6201 2.99425L27.7915 7.90854M30.7858 30.8571H25.0715V14.8571C25.0715 14.554 25.1919 14.2633 25.4062 14.049C25.6206 13.8347 25.9112 13.7143 26.2144 13.7143H29.6429C29.946 13.7143 30.2367 13.8347 30.451 14.049C30.6654 14.2633 30.7858 14.554 30.7858 14.8571V30.8571ZM19.3572 30.8571H13.6429V18.2857C13.6429 17.9826 13.7633 17.6919 13.9777 17.4776C14.192 17.2632 14.4827 17.1428 14.7858 17.1428H18.2144C18.5175 17.1428 18.8082 17.2632 19.0225 17.4776C19.2368 17.6919 19.3572 17.9826 19.3572 18.2857V30.8571ZM7.92864 30.8571H2.21436V21.7142C2.21436 21.4111 2.33476 21.1205 2.54909 20.9061C2.76342 20.6918 3.05411 20.5714 3.35721 20.5714H6.78578C7.08889 20.5714 7.37958 20.6918 7.59391 20.9061C7.80823 21.1205 7.92864 21.4111 7.92864 21.7142V30.8571Z" stroke="#7F7F7F" stroke-width="2" stroke-linecap="round" stroke-linejoin="round"/>
</svg>
