<svg width="33" height="32" viewBox="0 0 33 32" fill="none" xmlns="http://www.w3.org/2000/svg">
<path d="M22.4088 9.2925L20.745 6.66375C20.3944 6.255 19.9137 6 19.375 6H13.625C13.0863 6 12.6056 6.255 12.255 6.66375L10.5913 9.2925C10.2406 9.70187 9.78875 10 9.25 10H5.5C4.96957 10 4.46086 10.2107 4.08579 10.5858C3.71071 10.9609 3.5 11.4696 3.5 12V24C3.5 24.5304 3.71071 25.0391 4.08579 25.4142C4.46086 25.7893 4.96957 26 5.5 26H27.5C28.0304 26 28.5391 25.7893 28.9142 25.4142C29.2893 25.0391 29.5 24.5304 29.5 24V12C29.5 11.4696 29.2893 10.9609 28.9142 10.5858C28.5391 10.2107 28.0304 10 27.5 10H23.8125C23.2719 10 22.7594 9.70187 22.4088 9.2925Z" stroke="#FFFFFF" stroke-width="2" stroke-linecap="round" stroke-linejoin="round"/>
<path d="M16.5 22C19.2614 22 21.5 19.7614 21.5 17C21.5 14.2386 19.2614 12 16.5 12C13.7386 12 11.5 14.2386 11.5 17C11.5 19.7614 13.7386 22 16.5 22Z" stroke="#FFFFFF" stroke-width="2" stroke-miterlimit="10"/>
<path d="M8.25 9.875V8.5H6.75V9.875" stroke="#FFFFFF" stroke-width="2" stroke-linecap="round" stroke-linejoin="round"/>
</svg>
